<mxfile host="65bd71144e" pages="5">
    <diagram id="nOgRstkEzNSoaI89Z7jj" name="HomePage">
        <mxGraphModel dx="1252" dy="1636" grid="1" gridSize="10" guides="1" tooltips="1" connect="1" arrows="1" fold="1" page="1" pageScale="1" pageWidth="827" pageHeight="1169" math="0" shadow="0">
            <root>
                <mxCell id="0"/>
                <mxCell id="1" parent="0"/>
                <mxCell id="GSIIqswrD881-GBcd3br-14" value="" style="strokeWidth=1;shadow=0;dashed=0;align=center;html=1;shape=mxgraph.mockup.containers.browserWindow;rSize=0;strokeColor=#666666;strokeColor2=#008cff;strokeColor3=#c4c4c4;mainText=,;recursiveResize=0;" parent="1" vertex="1">
                    <mxGeometry x="-780" y="-1140" width="1000" height="1280" as="geometry"/>
                </mxCell>
                <mxCell id="GSIIqswrD881-GBcd3br-110" value="" style="group" parent="GSIIqswrD881-GBcd3br-14" vertex="1" connectable="0">
                    <mxGeometry x="150" y="220" width="830" height="1350" as="geometry"/>
                </mxCell>
                <mxCell id="GSIIqswrD881-GBcd3br-99" value="" style="rounded=0;whiteSpace=wrap;html=1;" parent="GSIIqswrD881-GBcd3br-110" vertex="1">
                    <mxGeometry width="800" height="1030" as="geometry"/>
                </mxCell>
                <mxCell id="GSIIqswrD881-GBcd3br-105" value="" style="verticalLabelPosition=bottom;shadow=0;dashed=0;align=center;html=1;verticalAlign=top;strokeWidth=1;shape=mxgraph.mockup.navigation.scrollBar;barPos=20;fillColor2=#99ddff;strokeColor2=none;direction=north;glass=0;sketch=0;opacity=50;" parent="GSIIqswrD881-GBcd3br-110" vertex="1">
                    <mxGeometry x="810" width="20" height="880" as="geometry"/>
                </mxCell>
                <mxCell id="GSIIqswrD881-GBcd3br-108" value="Lee la historia aqui" style="rounded=0;whiteSpace=wrap;html=1;glass=0;sketch=0;" parent="GSIIqswrD881-GBcd3br-110" vertex="1">
                    <mxGeometry x="480" y="180" width="270" height="250" as="geometry"/>
                </mxCell>
                <mxCell id="GSIIqswrD881-GBcd3br-148" value="" style="group" parent="GSIIqswrD881-GBcd3br-110" vertex="1" connectable="0">
                    <mxGeometry x="50" y="180" width="270" height="255" as="geometry"/>
                </mxCell>
                <mxCell id="GSIIqswrD881-GBcd3br-143" value="" style="rounded=0;whiteSpace=wrap;html=1;glass=0;sketch=0;" parent="GSIIqswrD881-GBcd3br-148" vertex="1">
                    <mxGeometry width="270" height="255" as="geometry"/>
                </mxCell>
                <mxCell id="GSIIqswrD881-GBcd3br-111" value="" style="group" parent="GSIIqswrD881-GBcd3br-148" vertex="1" connectable="0">
                    <mxGeometry x="20" y="200" width="230" height="50" as="geometry"/>
                </mxCell>
                <mxCell id="GSIIqswrD881-GBcd3br-106" value="" style="shape=image;html=1;verticalAlign=top;verticalLabelPosition=bottom;labelBackgroundColor=#ffffff;imageAspect=0;aspect=fixed;image=https://cdn4.iconfinder.com/data/icons/essential-app-2/16/volume-sound-speaker-lound-128.png;glass=0;sketch=0;strokeColor=#82B366;fillColor=#82B366;" parent="GSIIqswrD881-GBcd3br-111" vertex="1">
                    <mxGeometry width="50" height="50" as="geometry"/>
                </mxCell>
                <mxCell id="GSIIqswrD881-GBcd3br-107" value="Escucha el motor aqui" style="text;html=1;strokeColor=none;fillColor=none;align=center;verticalAlign=middle;whiteSpace=wrap;rounded=0;glass=0;sketch=0;" parent="GSIIqswrD881-GBcd3br-111" vertex="1">
                    <mxGeometry x="70" y="10" width="160" height="30" as="geometry"/>
                </mxCell>
                <mxCell id="GSIIqswrD881-GBcd3br-145" value="Tu mustang random es..." style="text;html=1;strokeColor=none;fillColor=none;align=center;verticalAlign=middle;whiteSpace=wrap;rounded=0;glass=0;sketch=0;" parent="GSIIqswrD881-GBcd3br-148" vertex="1">
                    <mxGeometry x="10" y="10" width="250" height="30" as="geometry"/>
                </mxCell>
                <mxCell id="GSIIqswrD881-GBcd3br-146" value="" style="rounded=0;whiteSpace=wrap;html=1;glass=0;sketch=0;" parent="GSIIqswrD881-GBcd3br-148" vertex="1">
                    <mxGeometry x="20" y="40" width="230" height="150" as="geometry"/>
                </mxCell>
                <mxCell id="GSIIqswrD881-GBcd3br-147" value="" style="shape=image;html=1;verticalAlign=top;verticalLabelPosition=bottom;labelBackgroundColor=#ffffff;imageAspect=0;aspect=fixed;image=https://cdn4.iconfinder.com/data/icons/ionicons/512/icon-images-128.png;glass=0;sketch=0;strokeColor=#82B366;fillColor=#82B366;" parent="GSIIqswrD881-GBcd3br-148" vertex="1">
                    <mxGeometry x="100" y="80" width="70" height="70" as="geometry"/>
                </mxCell>
                <mxCell id="GSIIqswrD881-GBcd3br-109" value="" style="shape=image;html=1;verticalAlign=top;verticalLabelPosition=bottom;labelBackgroundColor=#ffffff;imageAspect=0;aspect=fixed;image=https://cdn4.iconfinder.com/data/icons/ionicons/512/icon-images-128.png;glass=0;sketch=0;strokeColor=#82B366;fillColor=#82B366;" parent="GSIIqswrD881-GBcd3br-110" vertex="1">
                    <mxGeometry x="577.5" y="326" width="75" height="75" as="geometry"/>
                </mxCell>
                <mxCell id="GSIIqswrD881-GBcd3br-104" value="Galería de imágenes&lt;br&gt;&lt;br&gt;&lt;a href=&quot;https://www.youtube.com/watch?v=5aBMu_RTdIs&quot;&gt;https://www.youtube.com/watch?v=5aBMu_RTdIs&lt;/a&gt;" style="whiteSpace=wrap;html=1;glass=0;sketch=0;opacity=50;" parent="GSIIqswrD881-GBcd3br-110" vertex="1">
                    <mxGeometry x="50" y="480" width="700" height="345" as="geometry"/>
                </mxCell>
                <mxCell id="GSIIqswrD881-GBcd3br-141" value="" style="group" parent="GSIIqswrD881-GBcd3br-110" vertex="1" connectable="0">
                    <mxGeometry y="825" width="800" height="220" as="geometry"/>
                </mxCell>
                <mxCell id="GSIIqswrD881-GBcd3br-123" value="" style="group" parent="GSIIqswrD881-GBcd3br-141" vertex="1" connectable="0">
                    <mxGeometry y="110" width="800" height="110" as="geometry"/>
                </mxCell>
                <mxCell id="GSIIqswrD881-GBcd3br-128" value="" style="group" parent="GSIIqswrD881-GBcd3br-123" vertex="1" connectable="0">
                    <mxGeometry width="800" height="110" as="geometry"/>
                </mxCell>
                <mxCell id="GSIIqswrD881-GBcd3br-115" value="" style="rounded=0;whiteSpace=wrap;html=1;glass=0;sketch=0;" parent="GSIIqswrD881-GBcd3br-128" vertex="1">
                    <mxGeometry width="800" height="110" as="geometry"/>
                </mxCell>
                <mxCell id="GSIIqswrD881-GBcd3br-122" value="" style="group" parent="GSIIqswrD881-GBcd3br-128" vertex="1" connectable="0">
                    <mxGeometry x="198" y="17.5" width="430" height="75" as="geometry"/>
                </mxCell>
                <mxCell id="GSIIqswrD881-GBcd3br-116" value="" style="shape=image;html=1;verticalAlign=top;verticalLabelPosition=bottom;labelBackgroundColor=#ffffff;imageAspect=0;aspect=fixed;image=https://cdn1.iconfinder.com/data/icons/social-media-circle-7/512/Circled_Facebook_svg-128.png;glass=0;sketch=0;strokeColor=#82B366;fillColor=#82B366;" parent="GSIIqswrD881-GBcd3br-122" vertex="1">
                    <mxGeometry y="4.166666666666667" width="66.66666666666667" height="66.66666666666667" as="geometry"/>
                </mxCell>
                <mxCell id="GSIIqswrD881-GBcd3br-117" value="" style="shape=image;html=1;verticalAlign=top;verticalLabelPosition=bottom;labelBackgroundColor=#ffffff;imageAspect=0;aspect=fixed;image=https://cdn3.iconfinder.com/data/icons/social-media-2466/32/Twitter-128.png;glass=0;sketch=0;strokeColor=#82B366;fillColor=#82B366;" parent="GSIIqswrD881-GBcd3br-122" vertex="1">
                    <mxGeometry x="112.38636363636364" width="75" height="75" as="geometry"/>
                </mxCell>
                <mxCell id="GSIIqswrD881-GBcd3br-120" value="" style="shape=image;html=1;verticalAlign=top;verticalLabelPosition=bottom;labelBackgroundColor=#ffffff;imageAspect=0;aspect=fixed;image=https://cdn3.iconfinder.com/data/icons/social-media-2466/32/Instagram-128.png;glass=0;sketch=0;strokeColor=#82B366;fillColor=#82B366;" parent="GSIIqswrD881-GBcd3br-122" vertex="1">
                    <mxGeometry x="229.6590909090909" width="75" height="75" as="geometry"/>
                </mxCell>
                <mxCell id="GSIIqswrD881-GBcd3br-121" value="" style="shape=image;html=1;verticalAlign=top;verticalLabelPosition=bottom;labelBackgroundColor=#ffffff;imageAspect=0;aspect=fixed;image=https://cdn3.iconfinder.com/data/icons/social-media-black-white-2/512/BW_Youtube_glyph_svg-128.png;glass=0;sketch=0;strokeColor=#82B366;fillColor=#82B366;" parent="GSIIqswrD881-GBcd3br-122" vertex="1">
                    <mxGeometry x="351.8181818181818" y="4.166666666666667" width="66.66666666666667" height="66.66666666666667" as="geometry"/>
                </mxCell>
                <mxCell id="GSIIqswrD881-GBcd3br-124" value="Suscribirse" style="labelPosition=center;verticalLabelPosition=middle;align=center;html=1;shape=mxgraph.basic.button;dx=10;glass=0;sketch=0;" parent="GSIIqswrD881-GBcd3br-128" vertex="1">
                    <mxGeometry x="40" y="32.5" width="120" height="45" as="geometry"/>
                </mxCell>
                <mxCell id="GSIIqswrD881-GBcd3br-125" value="Firma" style="text;html=1;strokeColor=none;fillColor=none;align=center;verticalAlign=middle;whiteSpace=wrap;rounded=0;glass=0;sketch=0;" parent="GSIIqswrD881-GBcd3br-128" vertex="1">
                    <mxGeometry x="710" y="40" width="60" height="30" as="geometry"/>
                </mxCell>
                <mxCell id="GSIIqswrD881-GBcd3br-129" value="" style="group" parent="GSIIqswrD881-GBcd3br-141" vertex="1" connectable="0">
                    <mxGeometry width="800" height="110" as="geometry"/>
                </mxCell>
                <mxCell id="GSIIqswrD881-GBcd3br-130" value="" style="group" parent="GSIIqswrD881-GBcd3br-129" vertex="1" connectable="0">
                    <mxGeometry width="800" height="110" as="geometry"/>
                </mxCell>
                <mxCell id="GSIIqswrD881-GBcd3br-131" value="Mapa del sitio" style="rounded=0;whiteSpace=wrap;html=1;glass=0;sketch=0;" parent="GSIIqswrD881-GBcd3br-130" vertex="1">
                    <mxGeometry y="60" width="800" height="50" as="geometry"/>
                </mxCell>
                <mxCell id="GSIIqswrD881-GBcd3br-15" value="Page 1" style="strokeWidth=1;shadow=0;dashed=0;align=center;html=1;shape=mxgraph.mockup.containers.anchor;fontSize=17;fontColor=#666666;align=left;" parent="GSIIqswrD881-GBcd3br-14" vertex="1">
                    <mxGeometry x="60" y="12" width="110" height="26" as="geometry"/>
                </mxCell>
                <mxCell id="GSIIqswrD881-GBcd3br-16" value="https://www.draw.io" style="strokeWidth=1;shadow=0;dashed=0;align=center;html=1;shape=mxgraph.mockup.containers.anchor;rSize=0;fontSize=17;fontColor=#666666;align=left;" parent="GSIIqswrD881-GBcd3br-14" vertex="1">
                    <mxGeometry x="130" y="60" width="250" height="26" as="geometry"/>
                </mxCell>
                <mxCell id="GSIIqswrD881-GBcd3br-17" value="LOGO" style="ellipse;whiteSpace=wrap;html=1;" parent="GSIIqswrD881-GBcd3br-14" vertex="1">
                    <mxGeometry x="10" y="120" width="110" height="110" as="geometry"/>
                </mxCell>
                <mxCell id="GSIIqswrD881-GBcd3br-72" value="Home&lt;span style=&quot;white-space: pre;&quot;&gt;&#9;&lt;/span&gt;&lt;span style=&quot;white-space: pre;&quot;&gt;&#9;&lt;/span&gt;Historia&lt;span style=&quot;white-space: pre;&quot;&gt;&#9;&lt;/span&gt;&lt;span style=&quot;white-space: pre;&quot;&gt;&#9;&lt;/span&gt;Ficha Tecnica&lt;span style=&quot;white-space: pre;&quot;&gt;&#9;&lt;/span&gt;&lt;span style=&quot;white-space: pre;&quot;&gt;&#9;&lt;/span&gt;Merchandising&lt;span style=&quot;white-space: pre;&quot;&gt;&#9;&lt;/span&gt;&lt;span style=&quot;white-space: pre;&quot;&gt;&#9;&lt;/span&gt;Comprar tu Mustang" style="rounded=0;whiteSpace=wrap;html=1;" parent="GSIIqswrD881-GBcd3br-14" vertex="1">
                    <mxGeometry x="150" y="150" width="800" height="50" as="geometry"/>
                </mxCell>
                <mxCell id="GSIIqswrD881-GBcd3br-98" value="AD" style="rounded=0;whiteSpace=wrap;html=1;" parent="GSIIqswrD881-GBcd3br-14" vertex="1">
                    <mxGeometry x="10" y="260" width="110" height="850" as="geometry"/>
                </mxCell>
                <mxCell id="GSIIqswrD881-GBcd3br-101" value="&lt;b&gt;Home&lt;/b&gt;" style="rounded=0;whiteSpace=wrap;html=1;fillColor=#82B366;strokeColor=#82B366;opacity=50;" parent="GSIIqswrD881-GBcd3br-14" vertex="1">
                    <mxGeometry x="290" y="150" width="70" height="50" as="geometry"/>
                </mxCell>
                <mxCell id="GSIIqswrD881-GBcd3br-102" value="Foto de cabecera" style="rounded=0;whiteSpace=wrap;html=1;glass=0;sketch=0;opacity=50;" parent="GSIIqswrD881-GBcd3br-14" vertex="1">
                    <mxGeometry x="160" y="230" width="780" height="120" as="geometry"/>
                </mxCell>
            </root>
        </mxGraphModel>
    </diagram>
    <diagram name="Historia" id="JAnG46kFSGYnmb43HJeK">
        <mxGraphModel dx="1252" dy="1636" grid="1" gridSize="10" guides="1" tooltips="1" connect="1" arrows="1" fold="1" page="1" pageScale="1" pageWidth="827" pageHeight="1169" math="0" shadow="0">
            <root>
                <mxCell id="mYcQGj56953t6nDvZR1R-0"/>
                <mxCell id="mYcQGj56953t6nDvZR1R-1" parent="mYcQGj56953t6nDvZR1R-0"/>
                <mxCell id="mYcQGj56953t6nDvZR1R-2" value="" style="strokeWidth=1;shadow=0;dashed=0;align=center;html=1;shape=mxgraph.mockup.containers.browserWindow;rSize=0;strokeColor=#666666;strokeColor2=#008cff;strokeColor3=#c4c4c4;mainText=,;recursiveResize=0;" parent="mYcQGj56953t6nDvZR1R-1" vertex="1">
                    <mxGeometry x="-780" y="-1140" width="1000" height="1280" as="geometry"/>
                </mxCell>
                <mxCell id="mYcQGj56953t6nDvZR1R-3" value="" style="group" parent="mYcQGj56953t6nDvZR1R-2" vertex="1" connectable="0">
                    <mxGeometry x="150" y="220" width="830" height="1350" as="geometry"/>
                </mxCell>
                <mxCell id="mYcQGj56953t6nDvZR1R-4" value="" style="rounded=0;whiteSpace=wrap;html=1;" parent="mYcQGj56953t6nDvZR1R-3" vertex="1">
                    <mxGeometry width="800" height="1030" as="geometry"/>
                </mxCell>
                <mxCell id="mYcQGj56953t6nDvZR1R-5" value="" style="verticalLabelPosition=bottom;shadow=0;dashed=0;align=center;html=1;verticalAlign=top;strokeWidth=1;shape=mxgraph.mockup.navigation.scrollBar;barPos=20;fillColor2=#99ddff;strokeColor2=none;direction=north;glass=0;sketch=0;opacity=50;" parent="mYcQGj56953t6nDvZR1R-3" vertex="1">
                    <mxGeometry x="810" width="20" height="880" as="geometry"/>
                </mxCell>
                <mxCell id="mYcQGj56953t6nDvZR1R-7" value="" style="group" parent="mYcQGj56953t6nDvZR1R-3" vertex="1" connectable="0">
                    <mxGeometry x="50" y="220" width="700" height="360" as="geometry"/>
                </mxCell>
                <mxCell id="mYcQGj56953t6nDvZR1R-8" value="" style="rounded=0;whiteSpace=wrap;html=1;glass=0;sketch=0;" parent="mYcQGj56953t6nDvZR1R-7" vertex="1">
                    <mxGeometry width="700" height="320" as="geometry"/>
                </mxCell>
                <mxCell id="mYcQGj56953t6nDvZR1R-9" value="" style="group" parent="mYcQGj56953t6nDvZR1R-7" vertex="1" connectable="0">
                    <mxGeometry x="290" y="222.3529411764706" width="230" height="70.58823529411765" as="geometry"/>
                </mxCell>
                <mxCell id="vTyMJ-ah6Omc0EHwnZa0-1" value="" style="group" parent="mYcQGj56953t6nDvZR1R-9" vertex="1" connectable="0">
                    <mxGeometry y="-2.352352941176491" width="220" height="42.35294117647061" as="geometry"/>
                </mxCell>
                <mxCell id="mYcQGj56953t6nDvZR1R-10" value="" style="shape=image;html=1;verticalAlign=top;verticalLabelPosition=bottom;labelBackgroundColor=#ffffff;imageAspect=0;aspect=fixed;image=https://cdn4.iconfinder.com/data/icons/essential-app-2/16/volume-sound-speaker-lound-128.png;glass=0;sketch=0;strokeColor=#82B366;fillColor=#82B366;" parent="vTyMJ-ah6Omc0EHwnZa0-1" vertex="1">
                    <mxGeometry y="2.352352941176491" width="40" height="40" as="geometry"/>
                </mxCell>
                <mxCell id="mYcQGj56953t6nDvZR1R-11" value="Escucha el motor aqui" style="text;html=1;strokeColor=none;fillColor=none;align=center;verticalAlign=middle;whiteSpace=wrap;rounded=0;glass=0;sketch=0;" parent="vTyMJ-ah6Omc0EHwnZa0-1" vertex="1">
                    <mxGeometry x="60" width="160" height="42.35294117647061" as="geometry"/>
                </mxCell>
                <mxCell id="mYcQGj56953t6nDvZR1R-12" value="Nombre del mustang" style="text;html=1;strokeColor=none;fillColor=none;align=center;verticalAlign=middle;whiteSpace=wrap;rounded=0;glass=0;sketch=0;" parent="mYcQGj56953t6nDvZR1R-7" vertex="1">
                    <mxGeometry x="380" y="14.117647058823529" width="250" height="42.35294117647059" as="geometry"/>
                </mxCell>
                <mxCell id="mYcQGj56953t6nDvZR1R-13" value="" style="rounded=0;whiteSpace=wrap;html=1;glass=0;sketch=0;" parent="mYcQGj56953t6nDvZR1R-7" vertex="1">
                    <mxGeometry x="20" y="56.470588235294116" width="230" height="211.76470588235293" as="geometry"/>
                </mxCell>
                <mxCell id="mYcQGj56953t6nDvZR1R-14" value="" style="shape=image;html=1;verticalAlign=top;verticalLabelPosition=bottom;labelBackgroundColor=#ffffff;imageAspect=0;aspect=fixed;image=https://cdn4.iconfinder.com/data/icons/ionicons/512/icon-images-128.png;glass=0;sketch=0;strokeColor=#82B366;fillColor=#82B366;" parent="mYcQGj56953t6nDvZR1R-7" vertex="1">
                    <mxGeometry x="120" y="136.98117647058822" width="50.75" height="50.75" as="geometry"/>
                </mxCell>
                <mxCell id="vTyMJ-ah6Omc0EHwnZa0-0" value="&lt;h1&gt;Heading&lt;/h1&gt;&lt;p&gt;&lt;font style=&quot;font-size: 12px;&quot;&gt;Lorem ipsum dolor sit amet, consectetur adipiscing elit, sed do eiusmod tempor incididunt ut labore et dolore magna aliqua. Ut enim ad minim veniam, quis nostrud exercitation ullamco laboris nisi ut aliquip ex ea commodo consequat. Duis aute irure dolor in reprehenderit in voluptate velit esse cillum dolore eu fugiat nulla pariatur. Excepteur sint occaecat cupidatat non proident, sunt in culpa qui officia deserunt mollit anim id est laborum.&lt;/font&gt;&lt;/p&gt;" style="text;html=1;strokeColor=none;fillColor=none;spacing=5;spacingTop=-20;whiteSpace=wrap;overflow=hidden;rounded=0;glass=0;sketch=0;fontColor=#000000;" parent="mYcQGj56953t6nDvZR1R-7" vertex="1">
                    <mxGeometry x="290" y="60" width="380" height="208.24" as="geometry"/>
                </mxCell>
                <mxCell id="mYcQGj56953t6nDvZR1R-16" value="Galería de imágenes&lt;br&gt;&lt;br&gt;&lt;a href=&quot;https://www.youtube.com/watch?v=5aBMu_RTdIs&quot;&gt;https://www.youtube.com/watch?v=5aBMu_RTdIs&lt;/a&gt;" style="whiteSpace=wrap;html=1;glass=0;sketch=0;opacity=50;" parent="mYcQGj56953t6nDvZR1R-3" vertex="1">
                    <mxGeometry x="50" y="560" width="700" height="265" as="geometry"/>
                </mxCell>
                <mxCell id="mYcQGj56953t6nDvZR1R-17" value="" style="group" parent="mYcQGj56953t6nDvZR1R-3" vertex="1" connectable="0">
                    <mxGeometry y="825" width="800" height="220" as="geometry"/>
                </mxCell>
                <mxCell id="mYcQGj56953t6nDvZR1R-18" value="" style="group" parent="mYcQGj56953t6nDvZR1R-17" vertex="1" connectable="0">
                    <mxGeometry y="110" width="800" height="110" as="geometry"/>
                </mxCell>
                <mxCell id="mYcQGj56953t6nDvZR1R-19" value="" style="group" parent="mYcQGj56953t6nDvZR1R-18" vertex="1" connectable="0">
                    <mxGeometry width="800" height="110" as="geometry"/>
                </mxCell>
                <mxCell id="mYcQGj56953t6nDvZR1R-20" value="" style="rounded=0;whiteSpace=wrap;html=1;glass=0;sketch=0;" parent="mYcQGj56953t6nDvZR1R-19" vertex="1">
                    <mxGeometry width="800" height="110" as="geometry"/>
                </mxCell>
                <mxCell id="mYcQGj56953t6nDvZR1R-21" value="" style="group" parent="mYcQGj56953t6nDvZR1R-19" vertex="1" connectable="0">
                    <mxGeometry x="198" y="17.5" width="430" height="75" as="geometry"/>
                </mxCell>
                <mxCell id="mYcQGj56953t6nDvZR1R-22" value="" style="shape=image;html=1;verticalAlign=top;verticalLabelPosition=bottom;labelBackgroundColor=#ffffff;imageAspect=0;aspect=fixed;image=https://cdn1.iconfinder.com/data/icons/social-media-circle-7/512/Circled_Facebook_svg-128.png;glass=0;sketch=0;strokeColor=#82B366;fillColor=#82B366;" parent="mYcQGj56953t6nDvZR1R-21" vertex="1">
                    <mxGeometry y="4.166666666666667" width="66.66666666666667" height="66.66666666666667" as="geometry"/>
                </mxCell>
                <mxCell id="mYcQGj56953t6nDvZR1R-23" value="" style="shape=image;html=1;verticalAlign=top;verticalLabelPosition=bottom;labelBackgroundColor=#ffffff;imageAspect=0;aspect=fixed;image=https://cdn3.iconfinder.com/data/icons/social-media-2466/32/Twitter-128.png;glass=0;sketch=0;strokeColor=#82B366;fillColor=#82B366;" parent="mYcQGj56953t6nDvZR1R-21" vertex="1">
                    <mxGeometry x="112.38636363636364" width="75" height="75" as="geometry"/>
                </mxCell>
                <mxCell id="mYcQGj56953t6nDvZR1R-24" value="" style="shape=image;html=1;verticalAlign=top;verticalLabelPosition=bottom;labelBackgroundColor=#ffffff;imageAspect=0;aspect=fixed;image=https://cdn3.iconfinder.com/data/icons/social-media-2466/32/Instagram-128.png;glass=0;sketch=0;strokeColor=#82B366;fillColor=#82B366;" parent="mYcQGj56953t6nDvZR1R-21" vertex="1">
                    <mxGeometry x="229.6590909090909" width="75" height="75" as="geometry"/>
                </mxCell>
                <mxCell id="mYcQGj56953t6nDvZR1R-25" value="" style="shape=image;html=1;verticalAlign=top;verticalLabelPosition=bottom;labelBackgroundColor=#ffffff;imageAspect=0;aspect=fixed;image=https://cdn3.iconfinder.com/data/icons/social-media-black-white-2/512/BW_Youtube_glyph_svg-128.png;glass=0;sketch=0;strokeColor=#82B366;fillColor=#82B366;" parent="mYcQGj56953t6nDvZR1R-21" vertex="1">
                    <mxGeometry x="351.8181818181818" y="4.166666666666667" width="66.66666666666667" height="66.66666666666667" as="geometry"/>
                </mxCell>
                <mxCell id="mYcQGj56953t6nDvZR1R-26" value="Suscribirse" style="labelPosition=center;verticalLabelPosition=middle;align=center;html=1;shape=mxgraph.basic.button;dx=10;glass=0;sketch=0;" parent="mYcQGj56953t6nDvZR1R-19" vertex="1">
                    <mxGeometry x="40" y="32.5" width="120" height="45" as="geometry"/>
                </mxCell>
                <mxCell id="mYcQGj56953t6nDvZR1R-27" value="Firma" style="text;html=1;strokeColor=none;fillColor=none;align=center;verticalAlign=middle;whiteSpace=wrap;rounded=0;glass=0;sketch=0;" parent="mYcQGj56953t6nDvZR1R-19" vertex="1">
                    <mxGeometry x="710" y="40" width="60" height="30" as="geometry"/>
                </mxCell>
                <mxCell id="mYcQGj56953t6nDvZR1R-28" value="" style="group" parent="mYcQGj56953t6nDvZR1R-17" vertex="1" connectable="0">
                    <mxGeometry width="800" height="110" as="geometry"/>
                </mxCell>
                <mxCell id="mYcQGj56953t6nDvZR1R-29" value="" style="group" parent="mYcQGj56953t6nDvZR1R-28" vertex="1" connectable="0">
                    <mxGeometry width="800" height="110" as="geometry"/>
                </mxCell>
                <mxCell id="mYcQGj56953t6nDvZR1R-30" value="Mapa del sitio" style="rounded=0;whiteSpace=wrap;html=1;glass=0;sketch=0;" parent="mYcQGj56953t6nDvZR1R-29" vertex="1">
                    <mxGeometry y="60" width="800" height="50" as="geometry"/>
                </mxCell>
                <mxCell id="F92GCnp1rYAVLMzCt7_t-34" value="" style="group" parent="mYcQGj56953t6nDvZR1R-3" vertex="1" connectable="0">
                    <mxGeometry x="50" y="150" width="700" height="40" as="geometry"/>
                </mxCell>
                <mxCell id="F92GCnp1rYAVLMzCt7_t-25" value="" style="ellipse;whiteSpace=wrap;html=1;aspect=fixed;glass=0;sketch=0;" parent="F92GCnp1rYAVLMzCt7_t-34" vertex="1">
                    <mxGeometry x="200" width="40" height="40" as="geometry"/>
                </mxCell>
                <mxCell id="F92GCnp1rYAVLMzCt7_t-22" value="" style="ellipse;whiteSpace=wrap;html=1;aspect=fixed;glass=0;sketch=0;" parent="F92GCnp1rYAVLMzCt7_t-34" vertex="1">
                    <mxGeometry x="100" width="40" height="40" as="geometry"/>
                </mxCell>
                <mxCell id="F92GCnp1rYAVLMzCt7_t-29" value="" style="ellipse;whiteSpace=wrap;html=1;aspect=fixed;glass=0;sketch=0;" parent="F92GCnp1rYAVLMzCt7_t-34" vertex="1">
                    <mxGeometry x="400" width="40" height="40" as="geometry"/>
                </mxCell>
                <mxCell id="F92GCnp1rYAVLMzCt7_t-30" value="" style="ellipse;whiteSpace=wrap;html=1;aspect=fixed;glass=0;sketch=0;" parent="F92GCnp1rYAVLMzCt7_t-34" vertex="1">
                    <mxGeometry x="500" width="40" height="40" as="geometry"/>
                </mxCell>
                <mxCell id="F92GCnp1rYAVLMzCt7_t-31" value="" style="ellipse;whiteSpace=wrap;html=1;aspect=fixed;glass=0;sketch=0;" parent="F92GCnp1rYAVLMzCt7_t-34" vertex="1">
                    <mxGeometry x="600" width="40" height="40" as="geometry"/>
                </mxCell>
                <mxCell id="F92GCnp1rYAVLMzCt7_t-19" value="" style="ellipse;whiteSpace=wrap;html=1;aspect=fixed;glass=0;sketch=0;" parent="F92GCnp1rYAVLMzCt7_t-34" vertex="1">
                    <mxGeometry width="40" height="40" as="geometry"/>
                </mxCell>
                <mxCell id="F92GCnp1rYAVLMzCt7_t-20" value="" style="shape=flexArrow;endArrow=none;html=1;rounded=0;fontColor=#FFFFFF;" parent="F92GCnp1rYAVLMzCt7_t-34" target="F92GCnp1rYAVLMzCt7_t-19" edge="1">
                    <mxGeometry width="50" height="50" relative="1" as="geometry">
                        <mxPoint y="20" as="sourcePoint"/>
                        <mxPoint x="700" y="20" as="targetPoint"/>
                    </mxGeometry>
                </mxCell>
                <mxCell id="F92GCnp1rYAVLMzCt7_t-23" value="" style="shape=flexArrow;endArrow=none;html=1;rounded=0;fontColor=#FFFFFF;startArrow=none;" parent="F92GCnp1rYAVLMzCt7_t-34" source="F92GCnp1rYAVLMzCt7_t-19" target="F92GCnp1rYAVLMzCt7_t-22" edge="1">
                    <mxGeometry width="50" height="50" relative="1" as="geometry">
                        <mxPoint x="40" y="20" as="sourcePoint"/>
                        <mxPoint x="700" y="20" as="targetPoint"/>
                    </mxGeometry>
                </mxCell>
                <mxCell id="F92GCnp1rYAVLMzCt7_t-26" value="" style="shape=flexArrow;endArrow=none;html=1;rounded=0;fontColor=#FFFFFF;startArrow=none;" parent="F92GCnp1rYAVLMzCt7_t-34" source="F92GCnp1rYAVLMzCt7_t-22" target="F92GCnp1rYAVLMzCt7_t-25" edge="1">
                    <mxGeometry width="50" height="50" relative="1" as="geometry">
                        <mxPoint x="140" y="20" as="sourcePoint"/>
                        <mxPoint x="700" y="20" as="targetPoint"/>
                    </mxGeometry>
                </mxCell>
                <mxCell id="F92GCnp1rYAVLMzCt7_t-4" value="" style="shape=flexArrow;endArrow=classic;html=1;rounded=0;fontColor=#FFFFFF;startArrow=none;" parent="F92GCnp1rYAVLMzCt7_t-34" source="F92GCnp1rYAVLMzCt7_t-28" edge="1">
                    <mxGeometry width="50" height="50" relative="1" as="geometry">
                        <mxPoint y="20" as="sourcePoint"/>
                        <mxPoint x="700" y="20" as="targetPoint"/>
                    </mxGeometry>
                </mxCell>
                <mxCell id="F92GCnp1rYAVLMzCt7_t-13" value="&lt;font color=&quot;#000000&quot;&gt;&lt;b&gt;Linea de tiempo&lt;/b&gt;&lt;/font&gt;" style="edgeLabel;html=1;align=center;verticalAlign=middle;resizable=0;points=[];fontColor=#FFFFFF;" parent="F92GCnp1rYAVLMzCt7_t-4" vertex="1" connectable="0">
                    <mxGeometry x="0.0955" y="-4" relative="1" as="geometry">
                        <mxPoint as="offset"/>
                    </mxGeometry>
                </mxCell>
                <mxCell id="F92GCnp1rYAVLMzCt7_t-28" value="" style="ellipse;whiteSpace=wrap;html=1;aspect=fixed;glass=0;sketch=0;" parent="F92GCnp1rYAVLMzCt7_t-34" vertex="1">
                    <mxGeometry x="300" width="40" height="40" as="geometry"/>
                </mxCell>
                <mxCell id="F92GCnp1rYAVLMzCt7_t-32" value="" style="shape=flexArrow;endArrow=none;html=1;rounded=0;fontColor=#FFFFFF;startArrow=none;" parent="F92GCnp1rYAVLMzCt7_t-34" source="F92GCnp1rYAVLMzCt7_t-25" target="F92GCnp1rYAVLMzCt7_t-28" edge="1">
                    <mxGeometry width="50" height="50" relative="1" as="geometry">
                        <mxPoint x="240" y="20" as="sourcePoint"/>
                        <mxPoint x="700" y="20" as="targetPoint"/>
                    </mxGeometry>
                </mxCell>
                <mxCell id="mYcQGj56953t6nDvZR1R-31" value="Page 1" style="strokeWidth=1;shadow=0;dashed=0;align=center;html=1;shape=mxgraph.mockup.containers.anchor;fontSize=17;fontColor=#666666;align=left;" parent="mYcQGj56953t6nDvZR1R-2" vertex="1">
                    <mxGeometry x="60" y="12" width="110" height="26" as="geometry"/>
                </mxCell>
                <mxCell id="mYcQGj56953t6nDvZR1R-32" value="https://www.draw.io" style="strokeWidth=1;shadow=0;dashed=0;align=center;html=1;shape=mxgraph.mockup.containers.anchor;rSize=0;fontSize=17;fontColor=#666666;align=left;" parent="mYcQGj56953t6nDvZR1R-2" vertex="1">
                    <mxGeometry x="130" y="60" width="250" height="26" as="geometry"/>
                </mxCell>
                <mxCell id="mYcQGj56953t6nDvZR1R-33" value="LOGO" style="ellipse;whiteSpace=wrap;html=1;" parent="mYcQGj56953t6nDvZR1R-2" vertex="1">
                    <mxGeometry x="10" y="120" width="110" height="110" as="geometry"/>
                </mxCell>
                <mxCell id="mYcQGj56953t6nDvZR1R-34" value="Home&lt;span style=&quot;white-space: pre;&quot;&gt;&#9;&lt;/span&gt;&lt;font color=&quot;#ffffff&quot;&gt;&lt;span style=&quot;white-space: pre;&quot;&gt;&#9;&lt;/span&gt;Historia&lt;span style=&quot;white-space: pre;&quot;&gt;&#9;&lt;/span&gt;&lt;/font&gt;&lt;span style=&quot;white-space: pre;&quot;&gt;&#9;&lt;/span&gt;Ficha Tecnica&lt;span style=&quot;white-space: pre;&quot;&gt;&#9;&lt;/span&gt;&lt;span style=&quot;white-space: pre;&quot;&gt;&#9;&lt;/span&gt;Merchandising&lt;span style=&quot;white-space: pre;&quot;&gt;&#9;&lt;/span&gt;&lt;span style=&quot;white-space: pre;&quot;&gt;&#9;&lt;/span&gt;Comprar tu Mustang" style="rounded=0;whiteSpace=wrap;html=1;" parent="mYcQGj56953t6nDvZR1R-2" vertex="1">
                    <mxGeometry x="150" y="150" width="800" height="50" as="geometry"/>
                </mxCell>
                <mxCell id="mYcQGj56953t6nDvZR1R-35" value="AD" style="rounded=0;whiteSpace=wrap;html=1;" parent="mYcQGj56953t6nDvZR1R-2" vertex="1">
                    <mxGeometry x="10" y="260" width="110" height="850" as="geometry"/>
                </mxCell>
                <mxCell id="mYcQGj56953t6nDvZR1R-36" value="&lt;b&gt;Historia&lt;/b&gt;" style="rounded=0;whiteSpace=wrap;html=1;fillColor=#82B366;strokeColor=#82B366;opacity=50;" parent="mYcQGj56953t6nDvZR1R-2" vertex="1">
                    <mxGeometry x="367" y="150" width="80" height="50" as="geometry"/>
                </mxCell>
                <mxCell id="mYcQGj56953t6nDvZR1R-37" value="Foto de cabecera" style="rounded=0;whiteSpace=wrap;html=1;glass=0;sketch=0;opacity=50;" parent="mYcQGj56953t6nDvZR1R-2" vertex="1">
                    <mxGeometry x="160" y="230" width="780" height="120" as="geometry"/>
                </mxCell>
            </root>
        </mxGraphModel>
    </diagram>
    <diagram name="Ficha tecnica" id="nqE3Z9GJCY21VQetnGD6">
        <mxGraphModel dx="2838" dy="2243" grid="1" gridSize="10" guides="1" tooltips="1" connect="1" arrows="1" fold="1" page="1" pageScale="1" pageWidth="827" pageHeight="1169" math="0" shadow="0">
            <root>
                <mxCell id="1vmKbcdu8CMDruapHHC5-0"/>
                <mxCell id="1vmKbcdu8CMDruapHHC5-1" parent="1vmKbcdu8CMDruapHHC5-0"/>
                <mxCell id="1vmKbcdu8CMDruapHHC5-2" value="" style="strokeWidth=1;shadow=0;dashed=0;align=center;html=1;shape=mxgraph.mockup.containers.browserWindow;rSize=0;strokeColor=#666666;strokeColor2=#008cff;strokeColor3=#c4c4c4;mainText=,;recursiveResize=0;" vertex="1" parent="1vmKbcdu8CMDruapHHC5-1">
                    <mxGeometry x="-780" y="-1140" width="1000" height="1280" as="geometry"/>
                </mxCell>
                <mxCell id="1vmKbcdu8CMDruapHHC5-3" value="" style="group" vertex="1" connectable="0" parent="1vmKbcdu8CMDruapHHC5-2">
                    <mxGeometry x="150" y="220" width="830" height="1350" as="geometry"/>
                </mxCell>
                <mxCell id="1vmKbcdu8CMDruapHHC5-4" value="" style="rounded=0;whiteSpace=wrap;html=1;" vertex="1" parent="1vmKbcdu8CMDruapHHC5-3">
                    <mxGeometry width="800" height="1030" as="geometry"/>
                </mxCell>
                <mxCell id="1vmKbcdu8CMDruapHHC5-5" value="" style="verticalLabelPosition=bottom;shadow=0;dashed=0;align=center;html=1;verticalAlign=top;strokeWidth=1;shape=mxgraph.mockup.navigation.scrollBar;barPos=20;fillColor2=#99ddff;strokeColor2=none;direction=north;glass=0;sketch=0;opacity=50;" vertex="1" parent="1vmKbcdu8CMDruapHHC5-3">
                    <mxGeometry x="810" width="20" height="880" as="geometry"/>
                </mxCell>
                <mxCell id="1vmKbcdu8CMDruapHHC5-17" value="" style="group" vertex="1" connectable="0" parent="1vmKbcdu8CMDruapHHC5-3">
                    <mxGeometry y="825" width="800" height="220" as="geometry"/>
                </mxCell>
                <mxCell id="1vmKbcdu8CMDruapHHC5-18" value="" style="group" vertex="1" connectable="0" parent="1vmKbcdu8CMDruapHHC5-17">
                    <mxGeometry y="110" width="800" height="110" as="geometry"/>
                </mxCell>
                <mxCell id="1vmKbcdu8CMDruapHHC5-19" value="" style="group" vertex="1" connectable="0" parent="1vmKbcdu8CMDruapHHC5-18">
                    <mxGeometry width="800" height="110" as="geometry"/>
                </mxCell>
                <mxCell id="1vmKbcdu8CMDruapHHC5-20" value="" style="rounded=0;whiteSpace=wrap;html=1;glass=0;sketch=0;" vertex="1" parent="1vmKbcdu8CMDruapHHC5-19">
                    <mxGeometry width="800" height="110" as="geometry"/>
                </mxCell>
                <mxCell id="1vmKbcdu8CMDruapHHC5-21" value="" style="group" vertex="1" connectable="0" parent="1vmKbcdu8CMDruapHHC5-19">
                    <mxGeometry x="198" y="17.5" width="430" height="75" as="geometry"/>
                </mxCell>
                <mxCell id="1vmKbcdu8CMDruapHHC5-22" value="" style="shape=image;html=1;verticalAlign=top;verticalLabelPosition=bottom;labelBackgroundColor=#ffffff;imageAspect=0;aspect=fixed;image=https://cdn1.iconfinder.com/data/icons/social-media-circle-7/512/Circled_Facebook_svg-128.png;glass=0;sketch=0;strokeColor=#82B366;fillColor=#82B366;" vertex="1" parent="1vmKbcdu8CMDruapHHC5-21">
                    <mxGeometry y="4.166666666666667" width="66.66666666666667" height="66.66666666666667" as="geometry"/>
                </mxCell>
                <mxCell id="1vmKbcdu8CMDruapHHC5-23" value="" style="shape=image;html=1;verticalAlign=top;verticalLabelPosition=bottom;labelBackgroundColor=#ffffff;imageAspect=0;aspect=fixed;image=https://cdn3.iconfinder.com/data/icons/social-media-2466/32/Twitter-128.png;glass=0;sketch=0;strokeColor=#82B366;fillColor=#82B366;" vertex="1" parent="1vmKbcdu8CMDruapHHC5-21">
                    <mxGeometry x="112.38636363636364" width="75" height="75" as="geometry"/>
                </mxCell>
                <mxCell id="1vmKbcdu8CMDruapHHC5-24" value="" style="shape=image;html=1;verticalAlign=top;verticalLabelPosition=bottom;labelBackgroundColor=#ffffff;imageAspect=0;aspect=fixed;image=https://cdn3.iconfinder.com/data/icons/social-media-2466/32/Instagram-128.png;glass=0;sketch=0;strokeColor=#82B366;fillColor=#82B366;" vertex="1" parent="1vmKbcdu8CMDruapHHC5-21">
                    <mxGeometry x="229.6590909090909" width="75" height="75" as="geometry"/>
                </mxCell>
                <mxCell id="1vmKbcdu8CMDruapHHC5-25" value="" style="shape=image;html=1;verticalAlign=top;verticalLabelPosition=bottom;labelBackgroundColor=#ffffff;imageAspect=0;aspect=fixed;image=https://cdn3.iconfinder.com/data/icons/social-media-black-white-2/512/BW_Youtube_glyph_svg-128.png;glass=0;sketch=0;strokeColor=#82B366;fillColor=#82B366;" vertex="1" parent="1vmKbcdu8CMDruapHHC5-21">
                    <mxGeometry x="351.8181818181818" y="4.166666666666667" width="66.66666666666667" height="66.66666666666667" as="geometry"/>
                </mxCell>
                <mxCell id="1vmKbcdu8CMDruapHHC5-26" value="Suscribirse" style="labelPosition=center;verticalLabelPosition=middle;align=center;html=1;shape=mxgraph.basic.button;dx=10;glass=0;sketch=0;" vertex="1" parent="1vmKbcdu8CMDruapHHC5-19">
                    <mxGeometry x="40" y="32.5" width="120" height="45" as="geometry"/>
                </mxCell>
                <mxCell id="1vmKbcdu8CMDruapHHC5-27" value="Firma" style="text;html=1;strokeColor=none;fillColor=none;align=center;verticalAlign=middle;whiteSpace=wrap;rounded=0;glass=0;sketch=0;" vertex="1" parent="1vmKbcdu8CMDruapHHC5-19">
                    <mxGeometry x="710" y="40" width="60" height="30" as="geometry"/>
                </mxCell>
                <mxCell id="1vmKbcdu8CMDruapHHC5-28" value="" style="group" vertex="1" connectable="0" parent="1vmKbcdu8CMDruapHHC5-17">
                    <mxGeometry width="800" height="110" as="geometry"/>
                </mxCell>
                <mxCell id="1vmKbcdu8CMDruapHHC5-29" value="" style="group" vertex="1" connectable="0" parent="1vmKbcdu8CMDruapHHC5-28">
                    <mxGeometry width="800" height="110" as="geometry"/>
                </mxCell>
                <mxCell id="1vmKbcdu8CMDruapHHC5-30" value="Mapa del sitio" style="rounded=0;whiteSpace=wrap;html=1;glass=0;sketch=0;" vertex="1" parent="1vmKbcdu8CMDruapHHC5-29">
                    <mxGeometry y="60" width="800" height="50" as="geometry"/>
                </mxCell>
                <mxCell id="rkKkDIN_0JcyjKC1-l3R-20" value="" style="group" vertex="1" connectable="0" parent="1vmKbcdu8CMDruapHHC5-3">
                    <mxGeometry x="50" y="140" width="700" height="170" as="geometry"/>
                </mxCell>
                <mxCell id="rkKkDIN_0JcyjKC1-l3R-19" value="" style="rounded=0;whiteSpace=wrap;html=1;glass=0;labelBackgroundColor=none;sketch=0;fontFamily=Helvetica;fontSize=12;" vertex="1" parent="rkKkDIN_0JcyjKC1-l3R-20">
                    <mxGeometry width="700" height="170" as="geometry"/>
                </mxCell>
                <mxCell id="rkKkDIN_0JcyjKC1-l3R-6" value="Modelos" style="text;html=1;strokeColor=none;fillColor=none;align=center;verticalAlign=middle;whiteSpace=wrap;rounded=0;glass=0;labelBackgroundColor=none;sketch=0;fontFamily=Helvetica;fontSize=12;fontColor=#000000;" vertex="1" parent="rkKkDIN_0JcyjKC1-l3R-20">
                    <mxGeometry x="308" width="84" height="34" as="geometry"/>
                </mxCell>
                <mxCell id="rkKkDIN_0JcyjKC1-l3R-7" value="" style="rounded=0;whiteSpace=wrap;html=1;glass=0;labelBackgroundColor=none;sketch=0;fontFamily=Helvetica;fontSize=12;" vertex="1" parent="rkKkDIN_0JcyjKC1-l3R-20">
                    <mxGeometry x="14" y="34" width="112" height="56.666666666666664" as="geometry"/>
                </mxCell>
                <mxCell id="rkKkDIN_0JcyjKC1-l3R-8" value="" style="rounded=0;whiteSpace=wrap;html=1;glass=0;labelBackgroundColor=none;sketch=0;fontFamily=Helvetica;fontSize=12;" vertex="1" parent="rkKkDIN_0JcyjKC1-l3R-20">
                    <mxGeometry x="125.99999999999999" y="34" width="112" height="56.666666666666664" as="geometry"/>
                </mxCell>
                <mxCell id="rkKkDIN_0JcyjKC1-l3R-9" value="" style="rounded=0;whiteSpace=wrap;html=1;glass=0;labelBackgroundColor=none;sketch=0;fontFamily=Helvetica;fontSize=12;" vertex="1" parent="rkKkDIN_0JcyjKC1-l3R-20">
                    <mxGeometry x="237.99999999999997" y="34" width="112" height="56.666666666666664" as="geometry"/>
                </mxCell>
                <mxCell id="rkKkDIN_0JcyjKC1-l3R-10" value="" style="rounded=0;whiteSpace=wrap;html=1;glass=0;labelBackgroundColor=none;sketch=0;fontFamily=Helvetica;fontSize=12;" vertex="1" parent="rkKkDIN_0JcyjKC1-l3R-20">
                    <mxGeometry x="350" y="34" width="112" height="56.666666666666664" as="geometry"/>
                </mxCell>
                <mxCell id="rkKkDIN_0JcyjKC1-l3R-11" value="" style="rounded=0;whiteSpace=wrap;html=1;glass=0;labelBackgroundColor=none;sketch=0;fontFamily=Helvetica;fontSize=12;" vertex="1" parent="rkKkDIN_0JcyjKC1-l3R-20">
                    <mxGeometry x="461.99999999999994" y="34" width="112" height="56.666666666666664" as="geometry"/>
                </mxCell>
                <mxCell id="rkKkDIN_0JcyjKC1-l3R-12" value="" style="rounded=0;whiteSpace=wrap;html=1;glass=0;labelBackgroundColor=none;sketch=0;fontFamily=Helvetica;fontSize=12;" vertex="1" parent="rkKkDIN_0JcyjKC1-l3R-20">
                    <mxGeometry x="574" y="34" width="112" height="56.666666666666664" as="geometry"/>
                </mxCell>
                <mxCell id="rkKkDIN_0JcyjKC1-l3R-13" value="" style="rounded=0;whiteSpace=wrap;html=1;glass=0;labelBackgroundColor=none;sketch=0;fontFamily=Helvetica;fontSize=12;" vertex="1" parent="rkKkDIN_0JcyjKC1-l3R-20">
                    <mxGeometry x="14" y="102" width="112" height="56.666666666666664" as="geometry"/>
                </mxCell>
                <mxCell id="rkKkDIN_0JcyjKC1-l3R-14" value="" style="rounded=0;whiteSpace=wrap;html=1;glass=0;labelBackgroundColor=none;sketch=0;fontFamily=Helvetica;fontSize=12;" vertex="1" parent="rkKkDIN_0JcyjKC1-l3R-20">
                    <mxGeometry x="125.99999999999999" y="102" width="112" height="56.666666666666664" as="geometry"/>
                </mxCell>
                <mxCell id="rkKkDIN_0JcyjKC1-l3R-15" value="" style="rounded=0;whiteSpace=wrap;html=1;glass=0;labelBackgroundColor=none;sketch=0;fontFamily=Helvetica;fontSize=12;" vertex="1" parent="rkKkDIN_0JcyjKC1-l3R-20">
                    <mxGeometry x="237.99999999999997" y="102" width="112" height="56.666666666666664" as="geometry"/>
                </mxCell>
                <mxCell id="rkKkDIN_0JcyjKC1-l3R-16" value="" style="rounded=0;whiteSpace=wrap;html=1;glass=0;labelBackgroundColor=none;sketch=0;fontFamily=Helvetica;fontSize=12;" vertex="1" parent="rkKkDIN_0JcyjKC1-l3R-20">
                    <mxGeometry x="350" y="102" width="112" height="56.666666666666664" as="geometry"/>
                </mxCell>
                <mxCell id="rkKkDIN_0JcyjKC1-l3R-17" value="" style="rounded=0;whiteSpace=wrap;html=1;glass=0;labelBackgroundColor=none;sketch=0;fontFamily=Helvetica;fontSize=12;" vertex="1" parent="rkKkDIN_0JcyjKC1-l3R-20">
                    <mxGeometry x="461.99999999999994" y="102" width="112" height="56.666666666666664" as="geometry"/>
                </mxCell>
                <mxCell id="rkKkDIN_0JcyjKC1-l3R-18" value="" style="rounded=0;whiteSpace=wrap;html=1;glass=0;labelBackgroundColor=none;sketch=0;fontFamily=Helvetica;fontSize=12;" vertex="1" parent="rkKkDIN_0JcyjKC1-l3R-20">
                    <mxGeometry x="574" y="102" width="112" height="56.666666666666664" as="geometry"/>
                </mxCell>
                <mxCell id="1vmKbcdu8CMDruapHHC5-6" value="" style="group" vertex="1" connectable="0" parent="1vmKbcdu8CMDruapHHC5-3">
                    <mxGeometry x="50" y="336" width="700" height="454" as="geometry"/>
                </mxCell>
                <mxCell id="1vmKbcdu8CMDruapHHC5-7" value="" style="rounded=0;whiteSpace=wrap;html=1;glass=0;sketch=0;" vertex="1" parent="1vmKbcdu8CMDruapHHC5-6">
                    <mxGeometry width="700" height="403.5555555555555" as="geometry"/>
                </mxCell>
                <mxCell id="1vmKbcdu8CMDruapHHC5-12" value="Nombre del mustang" style="text;html=1;strokeColor=none;fillColor=none;align=center;verticalAlign=middle;whiteSpace=wrap;rounded=0;glass=0;sketch=0;" vertex="1" parent="1vmKbcdu8CMDruapHHC5-6">
                    <mxGeometry x="225" y="37.836671568627445" width="250" height="53.41176470588235" as="geometry"/>
                </mxCell>
                <mxCell id="rkKkDIN_0JcyjKC1-l3R-24" value="" style="shape=table;html=1;whiteSpace=wrap;startSize=0;container=1;collapsible=0;childLayout=tableLayout;glass=0;labelBackgroundColor=none;sketch=0;fontFamily=Helvetica;fontSize=12;" vertex="1" parent="1vmKbcdu8CMDruapHHC5-6">
                    <mxGeometry x="20" y="132.41666666666666" width="650" height="227" as="geometry"/>
                </mxCell>
                <mxCell id="rkKkDIN_0JcyjKC1-l3R-25" value="" style="shape=tableRow;horizontal=0;startSize=0;swimlaneHead=0;swimlaneBody=0;top=0;left=0;bottom=0;right=0;collapsible=0;dropTarget=0;fillColor=none;points=[[0,0.5],[1,0.5]];portConstraint=eastwest;glass=0;labelBackgroundColor=none;sketch=0;strokeColor=#82B366;fontFamily=Helvetica;fontSize=12;fontColor=#000000;" vertex="1" parent="rkKkDIN_0JcyjKC1-l3R-24">
                    <mxGeometry width="650" height="76" as="geometry"/>
                </mxCell>
                <mxCell id="rkKkDIN_0JcyjKC1-l3R-26" value="Especificacion" style="shape=partialRectangle;html=1;whiteSpace=wrap;connectable=0;fillColor=none;top=0;left=0;bottom=0;right=0;overflow=hidden;glass=0;labelBackgroundColor=none;sketch=0;strokeColor=#82B366;fontFamily=Helvetica;fontSize=12;fontColor=#000000;" vertex="1" parent="rkKkDIN_0JcyjKC1-l3R-25">
                    <mxGeometry width="217" height="76" as="geometry">
                        <mxRectangle width="217" height="76" as="alternateBounds"/>
                    </mxGeometry>
                </mxCell>
                <mxCell id="rkKkDIN_0JcyjKC1-l3R-27" value="Valor" style="shape=partialRectangle;html=1;whiteSpace=wrap;connectable=0;fillColor=none;top=0;left=0;bottom=0;right=0;overflow=hidden;glass=0;labelBackgroundColor=none;sketch=0;strokeColor=#82B366;fontFamily=Helvetica;fontSize=12;fontColor=#000000;" vertex="1" parent="rkKkDIN_0JcyjKC1-l3R-25">
                    <mxGeometry x="217" width="216" height="76" as="geometry">
                        <mxRectangle width="216" height="76" as="alternateBounds"/>
                    </mxGeometry>
                </mxCell>
                <mxCell id="rkKkDIN_0JcyjKC1-l3R-28" value="imagen?" style="shape=partialRectangle;html=1;whiteSpace=wrap;connectable=0;fillColor=none;top=0;left=0;bottom=0;right=0;overflow=hidden;glass=0;labelBackgroundColor=none;sketch=0;strokeColor=#82B366;fontFamily=Helvetica;fontSize=12;fontColor=#000000;" vertex="1" parent="rkKkDIN_0JcyjKC1-l3R-25">
                    <mxGeometry x="433" width="217" height="76" as="geometry">
                        <mxRectangle width="217" height="76" as="alternateBounds"/>
                    </mxGeometry>
                </mxCell>
                <mxCell id="rkKkDIN_0JcyjKC1-l3R-29" value="" style="shape=tableRow;horizontal=0;startSize=0;swimlaneHead=0;swimlaneBody=0;top=0;left=0;bottom=0;right=0;collapsible=0;dropTarget=0;fillColor=none;points=[[0,0.5],[1,0.5]];portConstraint=eastwest;glass=0;labelBackgroundColor=none;sketch=0;strokeColor=#82B366;fontFamily=Helvetica;fontSize=12;fontColor=#000000;" vertex="1" parent="rkKkDIN_0JcyjKC1-l3R-24">
                    <mxGeometry y="76" width="650" height="75" as="geometry"/>
                </mxCell>
                <mxCell id="rkKkDIN_0JcyjKC1-l3R-30" value="" style="shape=partialRectangle;html=1;whiteSpace=wrap;connectable=0;fillColor=none;top=0;left=0;bottom=0;right=0;overflow=hidden;glass=0;labelBackgroundColor=none;sketch=0;strokeColor=#82B366;fontFamily=Helvetica;fontSize=12;fontColor=#000000;" vertex="1" parent="rkKkDIN_0JcyjKC1-l3R-29">
                    <mxGeometry width="217" height="75" as="geometry">
                        <mxRectangle width="217" height="75" as="alternateBounds"/>
                    </mxGeometry>
                </mxCell>
                <mxCell id="rkKkDIN_0JcyjKC1-l3R-31" value="" style="shape=partialRectangle;html=1;whiteSpace=wrap;connectable=0;fillColor=none;top=0;left=0;bottom=0;right=0;overflow=hidden;glass=0;labelBackgroundColor=none;sketch=0;strokeColor=#82B366;fontFamily=Helvetica;fontSize=12;fontColor=#000000;" vertex="1" parent="rkKkDIN_0JcyjKC1-l3R-29">
                    <mxGeometry x="217" width="216" height="75" as="geometry">
                        <mxRectangle width="216" height="75" as="alternateBounds"/>
                    </mxGeometry>
                </mxCell>
                <mxCell id="rkKkDIN_0JcyjKC1-l3R-32" value="" style="shape=partialRectangle;html=1;whiteSpace=wrap;connectable=0;fillColor=none;top=0;left=0;bottom=0;right=0;overflow=hidden;glass=0;labelBackgroundColor=none;sketch=0;strokeColor=#82B366;fontFamily=Helvetica;fontSize=12;fontColor=#000000;" vertex="1" parent="rkKkDIN_0JcyjKC1-l3R-29">
                    <mxGeometry x="433" width="217" height="75" as="geometry">
                        <mxRectangle width="217" height="75" as="alternateBounds"/>
                    </mxGeometry>
                </mxCell>
                <mxCell id="rkKkDIN_0JcyjKC1-l3R-33" value="" style="shape=tableRow;horizontal=0;startSize=0;swimlaneHead=0;swimlaneBody=0;top=0;left=0;bottom=0;right=0;collapsible=0;dropTarget=0;fillColor=none;points=[[0,0.5],[1,0.5]];portConstraint=eastwest;glass=0;labelBackgroundColor=none;sketch=0;strokeColor=#82B366;fontFamily=Helvetica;fontSize=12;fontColor=#000000;" vertex="1" parent="rkKkDIN_0JcyjKC1-l3R-24">
                    <mxGeometry y="151" width="650" height="76" as="geometry"/>
                </mxCell>
                <mxCell id="rkKkDIN_0JcyjKC1-l3R-34" value="" style="shape=partialRectangle;html=1;whiteSpace=wrap;connectable=0;fillColor=none;top=0;left=0;bottom=0;right=0;overflow=hidden;glass=0;labelBackgroundColor=none;sketch=0;strokeColor=#82B366;fontFamily=Helvetica;fontSize=12;fontColor=#000000;" vertex="1" parent="rkKkDIN_0JcyjKC1-l3R-33">
                    <mxGeometry width="217" height="76" as="geometry">
                        <mxRectangle width="217" height="76" as="alternateBounds"/>
                    </mxGeometry>
                </mxCell>
                <mxCell id="rkKkDIN_0JcyjKC1-l3R-35" value="" style="shape=partialRectangle;html=1;whiteSpace=wrap;connectable=0;fillColor=none;top=0;left=0;bottom=0;right=0;overflow=hidden;glass=0;labelBackgroundColor=none;sketch=0;strokeColor=#82B366;fontFamily=Helvetica;fontSize=12;fontColor=#000000;" vertex="1" parent="rkKkDIN_0JcyjKC1-l3R-33">
                    <mxGeometry x="217" width="216" height="76" as="geometry">
                        <mxRectangle width="216" height="76" as="alternateBounds"/>
                    </mxGeometry>
                </mxCell>
                <mxCell id="rkKkDIN_0JcyjKC1-l3R-36" value="" style="shape=partialRectangle;html=1;whiteSpace=wrap;connectable=0;fillColor=none;top=0;left=0;bottom=0;right=0;overflow=hidden;pointerEvents=1;glass=0;labelBackgroundColor=none;sketch=0;strokeColor=#82B366;fontFamily=Helvetica;fontSize=12;fontColor=#000000;" vertex="1" parent="rkKkDIN_0JcyjKC1-l3R-33">
                    <mxGeometry x="433" width="217" height="76" as="geometry">
                        <mxRectangle width="217" height="76" as="alternateBounds"/>
                    </mxGeometry>
                </mxCell>
                <mxCell id="1vmKbcdu8CMDruapHHC5-45" value="Page 1" style="strokeWidth=1;shadow=0;dashed=0;align=center;html=1;shape=mxgraph.mockup.containers.anchor;fontSize=17;fontColor=#666666;align=left;" vertex="1" parent="1vmKbcdu8CMDruapHHC5-2">
                    <mxGeometry x="60" y="12" width="110" height="26" as="geometry"/>
                </mxCell>
                <mxCell id="1vmKbcdu8CMDruapHHC5-46" value="https://www.draw.io" style="strokeWidth=1;shadow=0;dashed=0;align=center;html=1;shape=mxgraph.mockup.containers.anchor;rSize=0;fontSize=17;fontColor=#666666;align=left;" vertex="1" parent="1vmKbcdu8CMDruapHHC5-2">
                    <mxGeometry x="130" y="60" width="250" height="26" as="geometry"/>
                </mxCell>
                <mxCell id="1vmKbcdu8CMDruapHHC5-47" value="LOGO" style="ellipse;whiteSpace=wrap;html=1;" vertex="1" parent="1vmKbcdu8CMDruapHHC5-2">
                    <mxGeometry x="10" y="120" width="110" height="110" as="geometry"/>
                </mxCell>
                <mxCell id="1vmKbcdu8CMDruapHHC5-48" value="Home&lt;span style=&quot;white-space: pre;&quot;&gt;&#9;&lt;/span&gt;&lt;span style=&quot;white-space: pre;&quot;&gt;&#9;&lt;/span&gt;Historia&lt;span style=&quot;white-space: pre;&quot;&gt;&#9;&lt;/span&gt;&lt;font color=&quot;#ffffff&quot;&gt;&lt;span style=&quot;white-space: pre;&quot;&gt;&#9;&lt;/span&gt;Ficha Tecnica&lt;span style=&quot;white-space: pre;&quot;&gt;&#9;&lt;/span&gt;&lt;/font&gt;&lt;span style=&quot;white-space: pre;&quot;&gt;&#9;&lt;/span&gt;Merchandising&lt;span style=&quot;white-space: pre;&quot;&gt;&#9;&lt;/span&gt;&lt;span style=&quot;white-space: pre;&quot;&gt;&#9;&lt;/span&gt;Comprar tu Mustang" style="rounded=0;whiteSpace=wrap;html=1;" vertex="1" parent="1vmKbcdu8CMDruapHHC5-2">
                    <mxGeometry x="150" y="150" width="800" height="50" as="geometry"/>
                </mxCell>
                <mxCell id="1vmKbcdu8CMDruapHHC5-49" value="AD" style="rounded=0;whiteSpace=wrap;html=1;" vertex="1" parent="1vmKbcdu8CMDruapHHC5-2">
                    <mxGeometry x="10" y="260" width="110" height="850" as="geometry"/>
                </mxCell>
                <mxCell id="1vmKbcdu8CMDruapHHC5-50" value="&lt;b&gt;Ficha Tecnica&lt;/b&gt;" style="rounded=0;whiteSpace=wrap;html=1;fillColor=#82B366;strokeColor=#82B366;opacity=50;" vertex="1" parent="1vmKbcdu8CMDruapHHC5-2">
                    <mxGeometry x="450" y="150" width="110" height="50" as="geometry"/>
                </mxCell>
                <mxCell id="1vmKbcdu8CMDruapHHC5-51" value="Foto de cabecera" style="rounded=0;whiteSpace=wrap;html=1;glass=0;sketch=0;opacity=50;" vertex="1" parent="1vmKbcdu8CMDruapHHC5-2">
                    <mxGeometry x="160" y="230" width="780" height="120" as="geometry"/>
                </mxCell>
            </root>
        </mxGraphModel>
    </diagram>
    <diagram name="Merchandising" id="8ekgwK2c4erVs7LfB8ke">
        <mxGraphModel dx="2483" dy="2054" grid="1" gridSize="10" guides="1" tooltips="1" connect="1" arrows="1" fold="1" page="1" pageScale="1" pageWidth="827" pageHeight="1169" math="0" shadow="0">
            <root>
                <mxCell id="Yp8j9wcY66WQ6nUNIJ9P-0"/>
                <mxCell id="Yp8j9wcY66WQ6nUNIJ9P-1" parent="Yp8j9wcY66WQ6nUNIJ9P-0"/>
                <mxCell id="Yp8j9wcY66WQ6nUNIJ9P-2" value="" style="strokeWidth=1;shadow=0;dashed=0;align=center;html=1;shape=mxgraph.mockup.containers.browserWindow;rSize=0;strokeColor=#666666;strokeColor2=#008cff;strokeColor3=#c4c4c4;mainText=,;recursiveResize=0;" vertex="1" parent="Yp8j9wcY66WQ6nUNIJ9P-1">
                    <mxGeometry x="-780" y="-1140" width="1000" height="1280" as="geometry"/>
                </mxCell>
                <mxCell id="Yp8j9wcY66WQ6nUNIJ9P-3" value="" style="group" vertex="1" connectable="0" parent="Yp8j9wcY66WQ6nUNIJ9P-2">
                    <mxGeometry x="150" y="220" width="830" height="1350" as="geometry"/>
                </mxCell>
                <mxCell id="Yp8j9wcY66WQ6nUNIJ9P-4" value="" style="rounded=0;whiteSpace=wrap;html=1;" vertex="1" parent="Yp8j9wcY66WQ6nUNIJ9P-3">
                    <mxGeometry width="800" height="1030" as="geometry"/>
                </mxCell>
                <mxCell id="Yp8j9wcY66WQ6nUNIJ9P-5" value="" style="verticalLabelPosition=bottom;shadow=0;dashed=0;align=center;html=1;verticalAlign=top;strokeWidth=1;shape=mxgraph.mockup.navigation.scrollBar;barPos=20;fillColor2=#99ddff;strokeColor2=none;direction=north;glass=0;sketch=0;opacity=50;" vertex="1" parent="Yp8j9wcY66WQ6nUNIJ9P-3">
                    <mxGeometry x="810" width="20" height="880" as="geometry"/>
                </mxCell>
                <mxCell id="Yp8j9wcY66WQ6nUNIJ9P-6" value="" style="group" vertex="1" connectable="0" parent="Yp8j9wcY66WQ6nUNIJ9P-3">
                    <mxGeometry y="825" width="800" height="220" as="geometry"/>
                </mxCell>
                <mxCell id="Yp8j9wcY66WQ6nUNIJ9P-7" value="" style="group" vertex="1" connectable="0" parent="Yp8j9wcY66WQ6nUNIJ9P-6">
                    <mxGeometry y="110" width="800" height="110" as="geometry"/>
                </mxCell>
                <mxCell id="Yp8j9wcY66WQ6nUNIJ9P-8" value="" style="group" vertex="1" connectable="0" parent="Yp8j9wcY66WQ6nUNIJ9P-7">
                    <mxGeometry width="800" height="110" as="geometry"/>
                </mxCell>
                <mxCell id="Yp8j9wcY66WQ6nUNIJ9P-9" value="" style="rounded=0;whiteSpace=wrap;html=1;glass=0;sketch=0;" vertex="1" parent="Yp8j9wcY66WQ6nUNIJ9P-8">
                    <mxGeometry width="800" height="110" as="geometry"/>
                </mxCell>
                <mxCell id="Yp8j9wcY66WQ6nUNIJ9P-10" value="" style="group" vertex="1" connectable="0" parent="Yp8j9wcY66WQ6nUNIJ9P-8">
                    <mxGeometry x="198" y="17.5" width="430" height="75" as="geometry"/>
                </mxCell>
                <mxCell id="Yp8j9wcY66WQ6nUNIJ9P-11" value="" style="shape=image;html=1;verticalAlign=top;verticalLabelPosition=bottom;labelBackgroundColor=#ffffff;imageAspect=0;aspect=fixed;image=https://cdn1.iconfinder.com/data/icons/social-media-circle-7/512/Circled_Facebook_svg-128.png;glass=0;sketch=0;strokeColor=#82B366;fillColor=#82B366;" vertex="1" parent="Yp8j9wcY66WQ6nUNIJ9P-10">
                    <mxGeometry y="4.166666666666667" width="66.66666666666667" height="66.66666666666667" as="geometry"/>
                </mxCell>
                <mxCell id="Yp8j9wcY66WQ6nUNIJ9P-12" value="" style="shape=image;html=1;verticalAlign=top;verticalLabelPosition=bottom;labelBackgroundColor=#ffffff;imageAspect=0;aspect=fixed;image=https://cdn3.iconfinder.com/data/icons/social-media-2466/32/Twitter-128.png;glass=0;sketch=0;strokeColor=#82B366;fillColor=#82B366;" vertex="1" parent="Yp8j9wcY66WQ6nUNIJ9P-10">
                    <mxGeometry x="112.38636363636364" width="75" height="75" as="geometry"/>
                </mxCell>
                <mxCell id="Yp8j9wcY66WQ6nUNIJ9P-13" value="" style="shape=image;html=1;verticalAlign=top;verticalLabelPosition=bottom;labelBackgroundColor=#ffffff;imageAspect=0;aspect=fixed;image=https://cdn3.iconfinder.com/data/icons/social-media-2466/32/Instagram-128.png;glass=0;sketch=0;strokeColor=#82B366;fillColor=#82B366;" vertex="1" parent="Yp8j9wcY66WQ6nUNIJ9P-10">
                    <mxGeometry x="229.6590909090909" width="75" height="75" as="geometry"/>
                </mxCell>
                <mxCell id="Yp8j9wcY66WQ6nUNIJ9P-14" value="" style="shape=image;html=1;verticalAlign=top;verticalLabelPosition=bottom;labelBackgroundColor=#ffffff;imageAspect=0;aspect=fixed;image=https://cdn3.iconfinder.com/data/icons/social-media-black-white-2/512/BW_Youtube_glyph_svg-128.png;glass=0;sketch=0;strokeColor=#82B366;fillColor=#82B366;" vertex="1" parent="Yp8j9wcY66WQ6nUNIJ9P-10">
                    <mxGeometry x="351.8181818181818" y="4.166666666666667" width="66.66666666666667" height="66.66666666666667" as="geometry"/>
                </mxCell>
                <mxCell id="Yp8j9wcY66WQ6nUNIJ9P-15" value="Suscribirse" style="labelPosition=center;verticalLabelPosition=middle;align=center;html=1;shape=mxgraph.basic.button;dx=10;glass=0;sketch=0;" vertex="1" parent="Yp8j9wcY66WQ6nUNIJ9P-8">
                    <mxGeometry x="40" y="32.5" width="120" height="45" as="geometry"/>
                </mxCell>
                <mxCell id="Yp8j9wcY66WQ6nUNIJ9P-16" value="Firma" style="text;html=1;strokeColor=none;fillColor=none;align=center;verticalAlign=middle;whiteSpace=wrap;rounded=0;glass=0;sketch=0;" vertex="1" parent="Yp8j9wcY66WQ6nUNIJ9P-8">
                    <mxGeometry x="710" y="40" width="60" height="30" as="geometry"/>
                </mxCell>
                <mxCell id="Yp8j9wcY66WQ6nUNIJ9P-17" value="" style="group" vertex="1" connectable="0" parent="Yp8j9wcY66WQ6nUNIJ9P-6">
                    <mxGeometry width="800" height="110" as="geometry"/>
                </mxCell>
                <mxCell id="Yp8j9wcY66WQ6nUNIJ9P-18" value="" style="group" vertex="1" connectable="0" parent="Yp8j9wcY66WQ6nUNIJ9P-17">
                    <mxGeometry width="800" height="110" as="geometry"/>
                </mxCell>
                <mxCell id="Yp8j9wcY66WQ6nUNIJ9P-19" value="Mapa del sitio" style="rounded=0;whiteSpace=wrap;html=1;glass=0;sketch=0;" vertex="1" parent="Yp8j9wcY66WQ6nUNIJ9P-18">
                    <mxGeometry y="60" width="800" height="50" as="geometry"/>
                </mxCell>
                <mxCell id="Yp8j9wcY66WQ6nUNIJ9P-35" value="" style="group" vertex="1" connectable="0" parent="Yp8j9wcY66WQ6nUNIJ9P-3">
                    <mxGeometry x="50" y="160" width="700" height="720" as="geometry"/>
                </mxCell>
                <mxCell id="Yp8j9wcY66WQ6nUNIJ9P-36" value="" style="rounded=0;whiteSpace=wrap;html=1;glass=0;sketch=0;" vertex="1" parent="Yp8j9wcY66WQ6nUNIJ9P-35">
                    <mxGeometry width="700" height="720" as="geometry"/>
                </mxCell>
                <mxCell id="JR_BjvsfFVHjUel_piVM-9" style="edgeStyle=orthogonalEdgeStyle;rounded=0;orthogonalLoop=1;jettySize=auto;html=1;exitX=0.5;exitY=1;exitDx=0;exitDy=0;fontFamily=Helvetica;fontSize=12;fontColor=#FFFFFF;" edge="1" parent="Yp8j9wcY66WQ6nUNIJ9P-35">
                    <mxGeometry relative="1" as="geometry">
                        <mxPoint x="350" y="46.66000000000008" as="sourcePoint"/>
                        <mxPoint x="350" y="46.66000000000008" as="targetPoint"/>
                    </mxGeometry>
                </mxCell>
                <mxCell id="JR_BjvsfFVHjUel_piVM-10" value="Item" style="swimlane;glass=0;labelBackgroundColor=none;sketch=0;fontFamily=Helvetica;fontSize=12;" vertex="1" parent="Yp8j9wcY66WQ6nUNIJ9P-35">
                    <mxGeometry x="30" y="60" width="200" height="210" as="geometry"/>
                </mxCell>
                <mxCell id="JR_BjvsfFVHjUel_piVM-11" value="imagen" style="rounded=0;whiteSpace=wrap;html=1;glass=0;labelBackgroundColor=none;sketch=0;fontFamily=Helvetica;fontSize=12;" vertex="1" parent="JR_BjvsfFVHjUel_piVM-10">
                    <mxGeometry x="40" y="40" width="120" height="80" as="geometry"/>
                </mxCell>
                <mxCell id="JR_BjvsfFVHjUel_piVM-12" value="Nombre&lt;br&gt;Descripcion&lt;br&gt;Precio" style="rounded=0;whiteSpace=wrap;html=1;glass=0;labelBackgroundColor=none;sketch=0;fontFamily=Helvetica;fontSize=12;" vertex="1" parent="JR_BjvsfFVHjUel_piVM-10">
                    <mxGeometry x="10" y="130" width="180" height="70" as="geometry"/>
                </mxCell>
                <mxCell id="JR_BjvsfFVHjUel_piVM-13" value="Item" style="swimlane;glass=0;labelBackgroundColor=none;sketch=0;fontFamily=Helvetica;fontSize=12;" vertex="1" parent="Yp8j9wcY66WQ6nUNIJ9P-35">
                    <mxGeometry x="30" y="290" width="200" height="210" as="geometry"/>
                </mxCell>
                <mxCell id="JR_BjvsfFVHjUel_piVM-14" value="imagen" style="rounded=0;whiteSpace=wrap;html=1;glass=0;labelBackgroundColor=none;sketch=0;fontFamily=Helvetica;fontSize=12;" vertex="1" parent="JR_BjvsfFVHjUel_piVM-13">
                    <mxGeometry x="40" y="40" width="120" height="80" as="geometry"/>
                </mxCell>
                <mxCell id="JR_BjvsfFVHjUel_piVM-15" value="Nombre&lt;br&gt;Descripcion&lt;br&gt;Precio" style="rounded=0;whiteSpace=wrap;html=1;glass=0;labelBackgroundColor=none;sketch=0;fontFamily=Helvetica;fontSize=12;" vertex="1" parent="JR_BjvsfFVHjUel_piVM-13">
                    <mxGeometry x="10" y="130" width="180" height="70" as="geometry"/>
                </mxCell>
                <mxCell id="JR_BjvsfFVHjUel_piVM-16" value="Item" style="swimlane;glass=0;labelBackgroundColor=none;sketch=0;fontFamily=Helvetica;fontSize=12;" vertex="1" parent="Yp8j9wcY66WQ6nUNIJ9P-35">
                    <mxGeometry x="250" y="60" width="200" height="210" as="geometry"/>
                </mxCell>
                <mxCell id="JR_BjvsfFVHjUel_piVM-17" value="imagen" style="rounded=0;whiteSpace=wrap;html=1;glass=0;labelBackgroundColor=none;sketch=0;fontFamily=Helvetica;fontSize=12;" vertex="1" parent="JR_BjvsfFVHjUel_piVM-16">
                    <mxGeometry x="40" y="40" width="120" height="80" as="geometry"/>
                </mxCell>
                <mxCell id="JR_BjvsfFVHjUel_piVM-18" value="Nombre&lt;br&gt;Descripcion&lt;br&gt;Precio" style="rounded=0;whiteSpace=wrap;html=1;glass=0;labelBackgroundColor=none;sketch=0;fontFamily=Helvetica;fontSize=12;" vertex="1" parent="JR_BjvsfFVHjUel_piVM-16">
                    <mxGeometry x="10" y="130" width="180" height="70" as="geometry"/>
                </mxCell>
                <mxCell id="JR_BjvsfFVHjUel_piVM-19" value="Item" style="swimlane;glass=0;labelBackgroundColor=none;sketch=0;fontFamily=Helvetica;fontSize=12;" vertex="1" parent="Yp8j9wcY66WQ6nUNIJ9P-35">
                    <mxGeometry x="250" y="290" width="200" height="210" as="geometry"/>
                </mxCell>
                <mxCell id="JR_BjvsfFVHjUel_piVM-20" value="imagen" style="rounded=0;whiteSpace=wrap;html=1;glass=0;labelBackgroundColor=none;sketch=0;fontFamily=Helvetica;fontSize=12;" vertex="1" parent="JR_BjvsfFVHjUel_piVM-19">
                    <mxGeometry x="40" y="40" width="120" height="80" as="geometry"/>
                </mxCell>
                <mxCell id="JR_BjvsfFVHjUel_piVM-21" value="Nombre&lt;br&gt;Descripcion&lt;br&gt;Precio" style="rounded=0;whiteSpace=wrap;html=1;glass=0;labelBackgroundColor=none;sketch=0;fontFamily=Helvetica;fontSize=12;" vertex="1" parent="JR_BjvsfFVHjUel_piVM-19">
                    <mxGeometry x="10" y="130" width="180" height="70" as="geometry"/>
                </mxCell>
                <mxCell id="JR_BjvsfFVHjUel_piVM-22" value="Item" style="swimlane;glass=0;labelBackgroundColor=none;sketch=0;fontFamily=Helvetica;fontSize=12;" vertex="1" parent="Yp8j9wcY66WQ6nUNIJ9P-35">
                    <mxGeometry x="470" y="60" width="200" height="210" as="geometry"/>
                </mxCell>
                <mxCell id="JR_BjvsfFVHjUel_piVM-23" value="imagen" style="rounded=0;whiteSpace=wrap;html=1;glass=0;labelBackgroundColor=none;sketch=0;fontFamily=Helvetica;fontSize=12;" vertex="1" parent="JR_BjvsfFVHjUel_piVM-22">
                    <mxGeometry x="40" y="40" width="120" height="80" as="geometry"/>
                </mxCell>
                <mxCell id="JR_BjvsfFVHjUel_piVM-24" value="Nombre&lt;br&gt;Descripcion&lt;br&gt;Precio" style="rounded=0;whiteSpace=wrap;html=1;glass=0;labelBackgroundColor=none;sketch=0;fontFamily=Helvetica;fontSize=12;" vertex="1" parent="JR_BjvsfFVHjUel_piVM-22">
                    <mxGeometry x="10" y="130" width="180" height="70" as="geometry"/>
                </mxCell>
                <mxCell id="JR_BjvsfFVHjUel_piVM-25" value="Item" style="swimlane;glass=0;labelBackgroundColor=none;sketch=0;fontFamily=Helvetica;fontSize=12;" vertex="1" parent="Yp8j9wcY66WQ6nUNIJ9P-35">
                    <mxGeometry x="470" y="290" width="200" height="210" as="geometry"/>
                </mxCell>
                <mxCell id="JR_BjvsfFVHjUel_piVM-26" value="imagen" style="rounded=0;whiteSpace=wrap;html=1;glass=0;labelBackgroundColor=none;sketch=0;fontFamily=Helvetica;fontSize=12;" vertex="1" parent="JR_BjvsfFVHjUel_piVM-25">
                    <mxGeometry x="40" y="40" width="120" height="80" as="geometry"/>
                </mxCell>
                <mxCell id="JR_BjvsfFVHjUel_piVM-27" value="Nombre&lt;br&gt;Descripcion&lt;br&gt;Precio" style="rounded=0;whiteSpace=wrap;html=1;glass=0;labelBackgroundColor=none;sketch=0;fontFamily=Helvetica;fontSize=12;" vertex="1" parent="JR_BjvsfFVHjUel_piVM-25">
                    <mxGeometry x="10" y="130" width="180" height="70" as="geometry"/>
                </mxCell>
                <mxCell id="JR_BjvsfFVHjUel_piVM-28" value="&lt;font color=&quot;#000000&quot;&gt;Merchandising&lt;/font&gt;" style="text;html=1;strokeColor=none;fillColor=none;align=center;verticalAlign=middle;whiteSpace=wrap;rounded=0;glass=0;labelBackgroundColor=none;sketch=0;fontFamily=Helvetica;fontSize=12;fontColor=#FFFFFF;" vertex="1" parent="Yp8j9wcY66WQ6nUNIJ9P-35">
                    <mxGeometry x="320" y="20" width="60" height="30" as="geometry"/>
                </mxCell>
                <mxCell id="Yp8j9wcY66WQ6nUNIJ9P-51" value="Page 1" style="strokeWidth=1;shadow=0;dashed=0;align=center;html=1;shape=mxgraph.mockup.containers.anchor;fontSize=17;fontColor=#666666;align=left;" vertex="1" parent="Yp8j9wcY66WQ6nUNIJ9P-2">
                    <mxGeometry x="60" y="12" width="110" height="26" as="geometry"/>
                </mxCell>
                <mxCell id="Yp8j9wcY66WQ6nUNIJ9P-52" value="https://www.draw.io" style="strokeWidth=1;shadow=0;dashed=0;align=center;html=1;shape=mxgraph.mockup.containers.anchor;rSize=0;fontSize=17;fontColor=#666666;align=left;" vertex="1" parent="Yp8j9wcY66WQ6nUNIJ9P-2">
                    <mxGeometry x="130" y="60" width="250" height="26" as="geometry"/>
                </mxCell>
                <mxCell id="Yp8j9wcY66WQ6nUNIJ9P-53" value="LOGO" style="ellipse;whiteSpace=wrap;html=1;" vertex="1" parent="Yp8j9wcY66WQ6nUNIJ9P-2">
                    <mxGeometry x="10" y="120" width="110" height="110" as="geometry"/>
                </mxCell>
                <mxCell id="Yp8j9wcY66WQ6nUNIJ9P-54" value="Home&lt;span style=&quot;white-space: pre;&quot;&gt;&#9;&lt;/span&gt;&lt;span style=&quot;white-space: pre;&quot;&gt;&#9;&lt;/span&gt;Historia&lt;span style=&quot;white-space: pre;&quot;&gt;&#9;&lt;/span&gt;&lt;span style=&quot;white-space: pre;&quot;&gt;&#9;&lt;/span&gt;Ficha Tecnica&lt;span style=&quot;white-space: pre;&quot;&gt;&#9;&lt;/span&gt;&lt;span style=&quot;white-space: pre;&quot;&gt;&#9;&lt;/span&gt;&lt;font color=&quot;#ffffff&quot;&gt;Merchandising&lt;span style=&quot;white-space: pre;&quot;&gt;&#9;&lt;/span&gt;&lt;/font&gt;&lt;span style=&quot;white-space: pre;&quot;&gt;&#9;&lt;/span&gt;Comprar tu Mustang" style="rounded=0;whiteSpace=wrap;html=1;" vertex="1" parent="Yp8j9wcY66WQ6nUNIJ9P-2">
                    <mxGeometry x="150" y="150" width="800" height="50" as="geometry"/>
                </mxCell>
                <mxCell id="Yp8j9wcY66WQ6nUNIJ9P-55" value="AD" style="rounded=0;whiteSpace=wrap;html=1;" vertex="1" parent="Yp8j9wcY66WQ6nUNIJ9P-2">
                    <mxGeometry x="10" y="260" width="110" height="850" as="geometry"/>
                </mxCell>
                <mxCell id="Yp8j9wcY66WQ6nUNIJ9P-56" value="&lt;b&gt;Merchandising&lt;/b&gt;" style="rounded=0;whiteSpace=wrap;html=1;fillColor=#82B366;strokeColor=#82B366;opacity=50;" vertex="1" parent="Yp8j9wcY66WQ6nUNIJ9P-2">
                    <mxGeometry x="560" y="150" width="110" height="50" as="geometry"/>
                </mxCell>
                <mxCell id="Yp8j9wcY66WQ6nUNIJ9P-57" value="Foto de cabecera" style="rounded=0;whiteSpace=wrap;html=1;glass=0;sketch=0;opacity=50;" vertex="1" parent="Yp8j9wcY66WQ6nUNIJ9P-2">
                    <mxGeometry x="160" y="230" width="780" height="120" as="geometry"/>
                </mxCell>
            </root>
        </mxGraphModel>
    </diagram>
    <diagram name="Compra tu mustang" id="eqNSh28DBZ2_c5XVhuR8">
        <mxGraphModel dx="2838" dy="2243" grid="1" gridSize="10" guides="1" tooltips="1" connect="1" arrows="1" fold="1" page="1" pageScale="1" pageWidth="827" pageHeight="1169" math="0" shadow="0">
            <root>
                <mxCell id="XPPYdXV9HvWjmxh4Z5UX-0"/>
                <mxCell id="XPPYdXV9HvWjmxh4Z5UX-1" parent="XPPYdXV9HvWjmxh4Z5UX-0"/>
                <mxCell id="XPPYdXV9HvWjmxh4Z5UX-2" value="" style="strokeWidth=1;shadow=0;dashed=0;align=center;html=1;shape=mxgraph.mockup.containers.browserWindow;rSize=0;strokeColor=#666666;strokeColor2=#008cff;strokeColor3=#c4c4c4;mainText=,;recursiveResize=0;" vertex="1" parent="XPPYdXV9HvWjmxh4Z5UX-1">
                    <mxGeometry x="-780" y="-1140" width="1000" height="1280" as="geometry"/>
                </mxCell>
                <mxCell id="XPPYdXV9HvWjmxh4Z5UX-3" value="" style="group" vertex="1" connectable="0" parent="XPPYdXV9HvWjmxh4Z5UX-2">
                    <mxGeometry x="150" y="220" width="830" height="1350" as="geometry"/>
                </mxCell>
                <mxCell id="XPPYdXV9HvWjmxh4Z5UX-4" value="" style="rounded=0;whiteSpace=wrap;html=1;" vertex="1" parent="XPPYdXV9HvWjmxh4Z5UX-3">
                    <mxGeometry width="800" height="1030" as="geometry"/>
                </mxCell>
                <mxCell id="XPPYdXV9HvWjmxh4Z5UX-5" value="" style="verticalLabelPosition=bottom;shadow=0;dashed=0;align=center;html=1;verticalAlign=top;strokeWidth=1;shape=mxgraph.mockup.navigation.scrollBar;barPos=20;fillColor2=#99ddff;strokeColor2=none;direction=north;glass=0;sketch=0;opacity=50;" vertex="1" parent="XPPYdXV9HvWjmxh4Z5UX-3">
                    <mxGeometry x="810" width="20" height="880" as="geometry"/>
                </mxCell>
                <mxCell id="XPPYdXV9HvWjmxh4Z5UX-6" value="" style="group" vertex="1" connectable="0" parent="XPPYdXV9HvWjmxh4Z5UX-3">
                    <mxGeometry y="825" width="800" height="220" as="geometry"/>
                </mxCell>
                <mxCell id="XPPYdXV9HvWjmxh4Z5UX-7" value="" style="group" vertex="1" connectable="0" parent="XPPYdXV9HvWjmxh4Z5UX-6">
                    <mxGeometry y="110" width="800" height="110" as="geometry"/>
                </mxCell>
                <mxCell id="XPPYdXV9HvWjmxh4Z5UX-8" value="" style="group" vertex="1" connectable="0" parent="XPPYdXV9HvWjmxh4Z5UX-7">
                    <mxGeometry width="800" height="110" as="geometry"/>
                </mxCell>
                <mxCell id="XPPYdXV9HvWjmxh4Z5UX-9" value="" style="rounded=0;whiteSpace=wrap;html=1;glass=0;sketch=0;" vertex="1" parent="XPPYdXV9HvWjmxh4Z5UX-8">
                    <mxGeometry width="800" height="110" as="geometry"/>
                </mxCell>
                <mxCell id="XPPYdXV9HvWjmxh4Z5UX-10" value="" style="group" vertex="1" connectable="0" parent="XPPYdXV9HvWjmxh4Z5UX-8">
                    <mxGeometry x="198" y="17.5" width="430" height="75" as="geometry"/>
                </mxCell>
                <mxCell id="XPPYdXV9HvWjmxh4Z5UX-11" value="" style="shape=image;html=1;verticalAlign=top;verticalLabelPosition=bottom;labelBackgroundColor=#ffffff;imageAspect=0;aspect=fixed;image=https://cdn1.iconfinder.com/data/icons/social-media-circle-7/512/Circled_Facebook_svg-128.png;glass=0;sketch=0;strokeColor=#82B366;fillColor=#82B366;" vertex="1" parent="XPPYdXV9HvWjmxh4Z5UX-10">
                    <mxGeometry y="4.166666666666667" width="66.66666666666667" height="66.66666666666667" as="geometry"/>
                </mxCell>
                <mxCell id="XPPYdXV9HvWjmxh4Z5UX-12" value="" style="shape=image;html=1;verticalAlign=top;verticalLabelPosition=bottom;labelBackgroundColor=#ffffff;imageAspect=0;aspect=fixed;image=https://cdn3.iconfinder.com/data/icons/social-media-2466/32/Twitter-128.png;glass=0;sketch=0;strokeColor=#82B366;fillColor=#82B366;" vertex="1" parent="XPPYdXV9HvWjmxh4Z5UX-10">
                    <mxGeometry x="112.38636363636364" width="75" height="75" as="geometry"/>
                </mxCell>
                <mxCell id="XPPYdXV9HvWjmxh4Z5UX-13" value="" style="shape=image;html=1;verticalAlign=top;verticalLabelPosition=bottom;labelBackgroundColor=#ffffff;imageAspect=0;aspect=fixed;image=https://cdn3.iconfinder.com/data/icons/social-media-2466/32/Instagram-128.png;glass=0;sketch=0;strokeColor=#82B366;fillColor=#82B366;" vertex="1" parent="XPPYdXV9HvWjmxh4Z5UX-10">
                    <mxGeometry x="229.6590909090909" width="75" height="75" as="geometry"/>
                </mxCell>
                <mxCell id="XPPYdXV9HvWjmxh4Z5UX-14" value="" style="shape=image;html=1;verticalAlign=top;verticalLabelPosition=bottom;labelBackgroundColor=#ffffff;imageAspect=0;aspect=fixed;image=https://cdn3.iconfinder.com/data/icons/social-media-black-white-2/512/BW_Youtube_glyph_svg-128.png;glass=0;sketch=0;strokeColor=#82B366;fillColor=#82B366;" vertex="1" parent="XPPYdXV9HvWjmxh4Z5UX-10">
                    <mxGeometry x="351.8181818181818" y="4.166666666666667" width="66.66666666666667" height="66.66666666666667" as="geometry"/>
                </mxCell>
                <mxCell id="XPPYdXV9HvWjmxh4Z5UX-15" value="Suscribirse" style="labelPosition=center;verticalLabelPosition=middle;align=center;html=1;shape=mxgraph.basic.button;dx=10;glass=0;sketch=0;" vertex="1" parent="XPPYdXV9HvWjmxh4Z5UX-8">
                    <mxGeometry x="40" y="32.5" width="120" height="45" as="geometry"/>
                </mxCell>
                <mxCell id="XPPYdXV9HvWjmxh4Z5UX-16" value="Firma" style="text;html=1;strokeColor=none;fillColor=none;align=center;verticalAlign=middle;whiteSpace=wrap;rounded=0;glass=0;sketch=0;" vertex="1" parent="XPPYdXV9HvWjmxh4Z5UX-8">
                    <mxGeometry x="710" y="40" width="60" height="30" as="geometry"/>
                </mxCell>
                <mxCell id="XPPYdXV9HvWjmxh4Z5UX-17" value="" style="group" vertex="1" connectable="0" parent="XPPYdXV9HvWjmxh4Z5UX-6">
                    <mxGeometry width="800" height="110" as="geometry"/>
                </mxCell>
                <mxCell id="XPPYdXV9HvWjmxh4Z5UX-18" value="" style="group" vertex="1" connectable="0" parent="XPPYdXV9HvWjmxh4Z5UX-17">
                    <mxGeometry width="800" height="110" as="geometry"/>
                </mxCell>
                <mxCell id="XPPYdXV9HvWjmxh4Z5UX-19" value="Mapa del sitio" style="rounded=0;whiteSpace=wrap;html=1;glass=0;sketch=0;" vertex="1" parent="XPPYdXV9HvWjmxh4Z5UX-18">
                    <mxGeometry y="60" width="800" height="50" as="geometry"/>
                </mxCell>
                <mxCell id="XPPYdXV9HvWjmxh4Z5UX-20" value="" style="group" vertex="1" connectable="0" parent="XPPYdXV9HvWjmxh4Z5UX-3">
                    <mxGeometry x="65" y="150" width="700" height="720" as="geometry"/>
                </mxCell>
                <mxCell id="XPPYdXV9HvWjmxh4Z5UX-21" value="" style="rounded=0;whiteSpace=wrap;html=1;glass=0;sketch=0;" vertex="1" parent="XPPYdXV9HvWjmxh4Z5UX-20">
                    <mxGeometry width="700" height="720" as="geometry"/>
                </mxCell>
                <mxCell id="XPPYdXV9HvWjmxh4Z5UX-22" style="edgeStyle=orthogonalEdgeStyle;rounded=0;orthogonalLoop=1;jettySize=auto;html=1;exitX=0.5;exitY=1;exitDx=0;exitDy=0;fontFamily=Helvetica;fontSize=12;fontColor=#FFFFFF;" edge="1" parent="XPPYdXV9HvWjmxh4Z5UX-20">
                    <mxGeometry relative="1" as="geometry">
                        <mxPoint x="350" y="46.66000000000008" as="sourcePoint"/>
                        <mxPoint x="350" y="46.66000000000008" as="targetPoint"/>
                    </mxGeometry>
                </mxCell>
                <mxCell id="XPPYdXV9HvWjmxh4Z5UX-23" value="Item" style="swimlane;glass=0;labelBackgroundColor=none;sketch=0;fontFamily=Helvetica;fontSize=12;" vertex="1" parent="XPPYdXV9HvWjmxh4Z5UX-20">
                    <mxGeometry x="30" y="60" width="200" height="210" as="geometry"/>
                </mxCell>
                <mxCell id="XPPYdXV9HvWjmxh4Z5UX-24" value="imagen" style="rounded=0;whiteSpace=wrap;html=1;glass=0;labelBackgroundColor=none;sketch=0;fontFamily=Helvetica;fontSize=12;" vertex="1" parent="XPPYdXV9HvWjmxh4Z5UX-23">
                    <mxGeometry x="40" y="40" width="120" height="80" as="geometry"/>
                </mxCell>
                <mxCell id="XPPYdXV9HvWjmxh4Z5UX-25" value="Nombre&lt;br&gt;Descripcion&lt;br&gt;Precio" style="rounded=0;whiteSpace=wrap;html=1;glass=0;labelBackgroundColor=none;sketch=0;fontFamily=Helvetica;fontSize=12;" vertex="1" parent="XPPYdXV9HvWjmxh4Z5UX-23">
                    <mxGeometry x="10" y="130" width="180" height="70" as="geometry"/>
                </mxCell>
                <mxCell id="XPPYdXV9HvWjmxh4Z5UX-29" value="Item" style="swimlane;glass=0;labelBackgroundColor=none;sketch=0;fontFamily=Helvetica;fontSize=12;" vertex="1" parent="XPPYdXV9HvWjmxh4Z5UX-20">
                    <mxGeometry x="250" y="60" width="200" height="210" as="geometry"/>
                </mxCell>
                <mxCell id="XPPYdXV9HvWjmxh4Z5UX-30" value="imagen" style="rounded=0;whiteSpace=wrap;html=1;glass=0;labelBackgroundColor=none;sketch=0;fontFamily=Helvetica;fontSize=12;" vertex="1" parent="XPPYdXV9HvWjmxh4Z5UX-29">
                    <mxGeometry x="40" y="40" width="120" height="80" as="geometry"/>
                </mxCell>
                <mxCell id="XPPYdXV9HvWjmxh4Z5UX-31" value="Nombre&lt;br&gt;Descripcion&lt;br&gt;Precio" style="rounded=0;whiteSpace=wrap;html=1;glass=0;labelBackgroundColor=none;sketch=0;fontFamily=Helvetica;fontSize=12;" vertex="1" parent="XPPYdXV9HvWjmxh4Z5UX-29">
                    <mxGeometry x="10" y="130" width="180" height="70" as="geometry"/>
                </mxCell>
                <mxCell id="XPPYdXV9HvWjmxh4Z5UX-35" value="Item" style="swimlane;glass=0;labelBackgroundColor=none;sketch=0;fontFamily=Helvetica;fontSize=12;" vertex="1" parent="XPPYdXV9HvWjmxh4Z5UX-20">
                    <mxGeometry x="470" y="60" width="200" height="210" as="geometry"/>
                </mxCell>
                <mxCell id="XPPYdXV9HvWjmxh4Z5UX-36" value="imagen" style="rounded=0;whiteSpace=wrap;html=1;glass=0;labelBackgroundColor=none;sketch=0;fontFamily=Helvetica;fontSize=12;" vertex="1" parent="XPPYdXV9HvWjmxh4Z5UX-35">
                    <mxGeometry x="40" y="40" width="120" height="80" as="geometry"/>
                </mxCell>
                <mxCell id="XPPYdXV9HvWjmxh4Z5UX-37" value="Nombre&lt;br&gt;Descripcion&lt;br&gt;Precio" style="rounded=0;whiteSpace=wrap;html=1;glass=0;labelBackgroundColor=none;sketch=0;fontFamily=Helvetica;fontSize=12;" vertex="1" parent="XPPYdXV9HvWjmxh4Z5UX-35">
                    <mxGeometry x="10" y="130" width="180" height="70" as="geometry"/>
                </mxCell>
                <mxCell id="XPPYdXV9HvWjmxh4Z5UX-41" value="&lt;font color=&quot;#000000&quot;&gt;Compra tu mustang&lt;/font&gt;" style="text;html=1;strokeColor=none;fillColor=none;align=center;verticalAlign=middle;whiteSpace=wrap;rounded=0;glass=0;labelBackgroundColor=none;sketch=0;fontFamily=Helvetica;fontSize=12;fontColor=#FFFFFF;" vertex="1" parent="XPPYdXV9HvWjmxh4Z5UX-20">
                    <mxGeometry x="280" y="20" width="140" height="30" as="geometry"/>
                </mxCell>
                <mxCell id="XCduJHxCR8OLl53yBr0G-2" value="Go to Shop" style="labelPosition=center;verticalLabelPosition=middle;align=center;html=1;shape=mxgraph.basic.button;dx=10;glass=0;labelBackgroundColor=none;sketch=0;fontFamily=Helvetica;fontSize=12;" vertex="1" parent="XPPYdXV9HvWjmxh4Z5UX-20">
                    <mxGeometry x="30" y="280" width="200" height="40" as="geometry"/>
                </mxCell>
                <mxCell id="XCduJHxCR8OLl53yBr0G-3" value="Go to Shop" style="labelPosition=center;verticalLabelPosition=middle;align=center;html=1;shape=mxgraph.basic.button;dx=10;glass=0;labelBackgroundColor=none;sketch=0;fontFamily=Helvetica;fontSize=12;" vertex="1" parent="XPPYdXV9HvWjmxh4Z5UX-20">
                    <mxGeometry x="250" y="280" width="200" height="40" as="geometry"/>
                </mxCell>
                <mxCell id="XCduJHxCR8OLl53yBr0G-4" value="Go to Shop" style="labelPosition=center;verticalLabelPosition=middle;align=center;html=1;shape=mxgraph.basic.button;dx=10;glass=0;labelBackgroundColor=none;sketch=0;fontFamily=Helvetica;fontSize=12;" vertex="1" parent="XPPYdXV9HvWjmxh4Z5UX-20">
                    <mxGeometry x="470" y="280" width="200" height="40" as="geometry"/>
                </mxCell>
                <mxCell id="XCduJHxCR8OLl53yBr0G-6" value="Item" style="swimlane;glass=0;labelBackgroundColor=none;sketch=0;fontFamily=Helvetica;fontSize=12;" vertex="1" parent="XPPYdXV9HvWjmxh4Z5UX-20">
                    <mxGeometry x="30" y="360" width="200" height="210" as="geometry"/>
                </mxCell>
                <mxCell id="XCduJHxCR8OLl53yBr0G-7" value="imagen" style="rounded=0;whiteSpace=wrap;html=1;glass=0;labelBackgroundColor=none;sketch=0;fontFamily=Helvetica;fontSize=12;" vertex="1" parent="XCduJHxCR8OLl53yBr0G-6">
                    <mxGeometry x="40" y="40" width="120" height="80" as="geometry"/>
                </mxCell>
                <mxCell id="XCduJHxCR8OLl53yBr0G-8" value="Nombre&lt;br&gt;Descripcion&lt;br&gt;Precio" style="rounded=0;whiteSpace=wrap;html=1;glass=0;labelBackgroundColor=none;sketch=0;fontFamily=Helvetica;fontSize=12;" vertex="1" parent="XCduJHxCR8OLl53yBr0G-6">
                    <mxGeometry x="10" y="130" width="180" height="70" as="geometry"/>
                </mxCell>
                <mxCell id="XCduJHxCR8OLl53yBr0G-9" value="Item" style="swimlane;glass=0;labelBackgroundColor=none;sketch=0;fontFamily=Helvetica;fontSize=12;" vertex="1" parent="XPPYdXV9HvWjmxh4Z5UX-20">
                    <mxGeometry x="250" y="360" width="200" height="210" as="geometry"/>
                </mxCell>
                <mxCell id="XCduJHxCR8OLl53yBr0G-10" value="imagen" style="rounded=0;whiteSpace=wrap;html=1;glass=0;labelBackgroundColor=none;sketch=0;fontFamily=Helvetica;fontSize=12;" vertex="1" parent="XCduJHxCR8OLl53yBr0G-9">
                    <mxGeometry x="40" y="40" width="120" height="80" as="geometry"/>
                </mxCell>
                <mxCell id="XCduJHxCR8OLl53yBr0G-11" value="Nombre&lt;br&gt;Descripcion&lt;br&gt;Precio" style="rounded=0;whiteSpace=wrap;html=1;glass=0;labelBackgroundColor=none;sketch=0;fontFamily=Helvetica;fontSize=12;" vertex="1" parent="XCduJHxCR8OLl53yBr0G-9">
                    <mxGeometry x="10" y="130" width="180" height="70" as="geometry"/>
                </mxCell>
                <mxCell id="XCduJHxCR8OLl53yBr0G-12" value="Item" style="swimlane;glass=0;labelBackgroundColor=none;sketch=0;fontFamily=Helvetica;fontSize=12;" vertex="1" parent="XPPYdXV9HvWjmxh4Z5UX-20">
                    <mxGeometry x="470" y="360" width="200" height="210" as="geometry"/>
                </mxCell>
                <mxCell id="XCduJHxCR8OLl53yBr0G-13" value="imagen" style="rounded=0;whiteSpace=wrap;html=1;glass=0;labelBackgroundColor=none;sketch=0;fontFamily=Helvetica;fontSize=12;" vertex="1" parent="XCduJHxCR8OLl53yBr0G-12">
                    <mxGeometry x="40" y="40" width="120" height="80" as="geometry"/>
                </mxCell>
                <mxCell id="XCduJHxCR8OLl53yBr0G-14" value="Nombre&lt;br&gt;Descripcion&lt;br&gt;Precio" style="rounded=0;whiteSpace=wrap;html=1;glass=0;labelBackgroundColor=none;sketch=0;fontFamily=Helvetica;fontSize=12;" vertex="1" parent="XCduJHxCR8OLl53yBr0G-12">
                    <mxGeometry x="10" y="130" width="180" height="70" as="geometry"/>
                </mxCell>
                <mxCell id="XCduJHxCR8OLl53yBr0G-15" value="Go to Shop" style="labelPosition=center;verticalLabelPosition=middle;align=center;html=1;shape=mxgraph.basic.button;dx=10;glass=0;labelBackgroundColor=none;sketch=0;fontFamily=Helvetica;fontSize=12;" vertex="1" parent="XPPYdXV9HvWjmxh4Z5UX-20">
                    <mxGeometry x="30" y="580" width="200" height="40" as="geometry"/>
                </mxCell>
                <mxCell id="XCduJHxCR8OLl53yBr0G-16" value="Go to Shop" style="labelPosition=center;verticalLabelPosition=middle;align=center;html=1;shape=mxgraph.basic.button;dx=10;glass=0;labelBackgroundColor=none;sketch=0;fontFamily=Helvetica;fontSize=12;" vertex="1" parent="XPPYdXV9HvWjmxh4Z5UX-20">
                    <mxGeometry x="250" y="580" width="200" height="40" as="geometry"/>
                </mxCell>
                <mxCell id="XCduJHxCR8OLl53yBr0G-17" value="Go to Shop" style="labelPosition=center;verticalLabelPosition=middle;align=center;html=1;shape=mxgraph.basic.button;dx=10;glass=0;labelBackgroundColor=none;sketch=0;fontFamily=Helvetica;fontSize=12;" vertex="1" parent="XPPYdXV9HvWjmxh4Z5UX-20">
                    <mxGeometry x="470" y="580" width="200" height="40" as="geometry"/>
                </mxCell>
                <mxCell id="XPPYdXV9HvWjmxh4Z5UX-42" value="Page 1" style="strokeWidth=1;shadow=0;dashed=0;align=center;html=1;shape=mxgraph.mockup.containers.anchor;fontSize=17;fontColor=#666666;align=left;" vertex="1" parent="XPPYdXV9HvWjmxh4Z5UX-2">
                    <mxGeometry x="60" y="12" width="110" height="26" as="geometry"/>
                </mxCell>
                <mxCell id="XPPYdXV9HvWjmxh4Z5UX-43" value="https://www.draw.io" style="strokeWidth=1;shadow=0;dashed=0;align=center;html=1;shape=mxgraph.mockup.containers.anchor;rSize=0;fontSize=17;fontColor=#666666;align=left;" vertex="1" parent="XPPYdXV9HvWjmxh4Z5UX-2">
                    <mxGeometry x="130" y="60" width="250" height="26" as="geometry"/>
                </mxCell>
                <mxCell id="XPPYdXV9HvWjmxh4Z5UX-44" value="LOGO" style="ellipse;whiteSpace=wrap;html=1;" vertex="1" parent="XPPYdXV9HvWjmxh4Z5UX-2">
                    <mxGeometry x="10" y="120" width="110" height="110" as="geometry"/>
                </mxCell>
                <mxCell id="XPPYdXV9HvWjmxh4Z5UX-45" value="Home&lt;span style=&quot;white-space: pre;&quot;&gt;&#9;&lt;/span&gt;&lt;span style=&quot;white-space: pre;&quot;&gt;&#9;&lt;/span&gt;Historia&lt;span style=&quot;white-space: pre;&quot;&gt;&#9;&lt;/span&gt;&lt;span style=&quot;white-space: pre;&quot;&gt;&#9;&lt;/span&gt;Ficha Tecnica&lt;span style=&quot;white-space: pre;&quot;&gt;&#9;&lt;/span&gt;&lt;span style=&quot;white-space: pre;&quot;&gt;&#9;&lt;/span&gt;Merchandising&lt;span style=&quot;white-space: pre;&quot;&gt;&#9;&lt;/span&gt;&lt;font color=&quot;#ffffff&quot;&gt;&lt;span style=&quot;white-space: pre;&quot;&gt;&#9;&lt;/span&gt;Comprar tu Mustang&lt;/font&gt;" style="rounded=0;whiteSpace=wrap;html=1;" vertex="1" parent="XPPYdXV9HvWjmxh4Z5UX-2">
                    <mxGeometry x="150" y="150" width="800" height="50" as="geometry"/>
                </mxCell>
                <mxCell id="XPPYdXV9HvWjmxh4Z5UX-46" value="AD" style="rounded=0;whiteSpace=wrap;html=1;" vertex="1" parent="XPPYdXV9HvWjmxh4Z5UX-2">
                    <mxGeometry x="10" y="260" width="110" height="850" as="geometry"/>
                </mxCell>
                <mxCell id="XPPYdXV9HvWjmxh4Z5UX-47" value="&lt;b&gt;Compra tu mustang&lt;/b&gt;" style="rounded=0;whiteSpace=wrap;html=1;fillColor=#82B366;strokeColor=#82B366;opacity=50;" vertex="1" parent="XPPYdXV9HvWjmxh4Z5UX-2">
                    <mxGeometry x="670" y="150" width="130" height="50" as="geometry"/>
                </mxCell>
                <mxCell id="XPPYdXV9HvWjmxh4Z5UX-48" value="Foto de cabecera" style="rounded=0;whiteSpace=wrap;html=1;glass=0;sketch=0;opacity=50;" vertex="1" parent="XPPYdXV9HvWjmxh4Z5UX-2">
                    <mxGeometry x="160" y="230" width="780" height="120" as="geometry"/>
                </mxCell>
            </root>
        </mxGraphModel>
    </diagram>
</mxfile>